<?xml version="1.0" encoding="iso-8859-1"?>
<!-- Generator: Adobe Illustrator 18.0.0, SVG Export Plug-In . SVG Version: 6.00 Build 0)  -->
<!DOCTYPE svg PUBLIC "-//W3C//DTD SVG 1.1//EN" "http://www.w3.org/Graphics/SVG/1.1/DTD/svg11.dtd">
<svg version="1.1" id="Capa_1" xmlns="http://www.w3.org/2000/svg" xmlns:xlink="http://www.w3.org/1999/xlink" x="0px" y="0px"
	 viewBox="0 0 170.654 170.654" style="enable-background:new 0 0 170.654 170.654;" xml:space="preserve">
<path d="M151.987,49.609c0-2.427-1.174-4.703-3.15-6.11L89.685,1.391c-2.604-1.854-6.097-1.855-8.698,0l-59.16,42.107
	c-1.978,1.407-3.151,3.684-3.151,6.109c0,2.427,1.174,4.703,3.15,6.11l59.148,42.111c1.302,0.927,2.825,1.391,4.35,1.391
	c1.523,0,3.048-0.463,4.349-1.39l47.315-33.678v53.025l-51.656,36.77l-54.815-39.012c-3.376-2.404-8.058-1.612-10.459,1.762
	c-2.402,3.374-1.613,8.058,1.762,10.459l59.164,42.107c1.302,0.927,2.825,1.39,4.349,1.39c1.523,0,3.048-0.463,4.35-1.39
	l59.156-42.107c2.124-1.513,3.221-3.929,3.145-6.355c0.001-0.038,0.006-0.075,0.006-0.113V49.965
	C151.987,49.9,151.987,49.663,151.987,49.609z M85.324,82.514L39.107,49.61l46.228-32.902l46.219,32.901L85.324,82.514z"/>
<g>
</g>
<g>
</g>
<g>
</g>
<g>
</g>
<g>
</g>
<g>
</g>
<g>
</g>
<g>
</g>
<g>
</g>
<g>
</g>
<g>
</g>
<g>
</g>
<g>
</g>
<g>
</g>
<g>
</g>
</svg>
