<?xml version="1.0" encoding="iso-8859-1"?>
<!-- Generator: Adobe Illustrator 18.0.0, SVG Export Plug-In . SVG Version: 6.00 Build 0)  -->
<!DOCTYPE svg PUBLIC "-//W3C//DTD SVG 1.1//EN" "http://www.w3.org/Graphics/SVG/1.1/DTD/svg11.dtd">
<svg version="1.1" id="Capa_1" xmlns="http://www.w3.org/2000/svg" xmlns:xlink="http://www.w3.org/1999/xlink" x="0px" y="0px"
	 viewBox="0 0 206.132 206.132" style="enable-background:new 0 0 206.132 206.132;" xml:space="preserve">
<g>
	<path d="M51.793,75.995h102.543c2.124,0,4.147-0.9,5.569-2.477c1.422-1.577,2.109-3.684,1.891-5.795
		c-1.797-17.368-10.939-32.265-24.16-41.789l9.197-14.397c2.23-3.49,1.208-8.128-2.283-10.357
		c-3.492-2.229-8.129-1.209-10.358,2.283l-9.776,15.304c-6.632-2.557-13.835-3.955-21.352-3.955c-7.517,0-14.718,1.398-21.35,3.955
		L71.938,3.464c-2.23-3.492-6.87-4.513-10.358-2.283c-3.491,2.229-4.513,6.867-2.283,10.357l9.196,14.396
		c-13.221,9.524-22.363,24.421-24.161,41.789c-0.219,2.112,0.468,4.219,1.89,5.795C47.645,75.095,49.669,75.995,51.793,75.995z
		 M81.916,35.182c0.35-0.153,0.693-0.331,1.025-0.542c6.043-3.091,12.887-4.828,20.123-4.828c7.244,0,14.093,1.741,20.142,4.837
		c0.326,0.206,0.662,0.382,1.004,0.532c9.973,5.436,17.628,14.62,21.008,25.813H60.911C64.291,49.803,71.945,40.619,81.916,35.182z"
		/>
	<path d="M154.336,88.94c-4.142,0-7.5,3.357-7.5,7.5v52.281c0,2.248-1.899,4.147-4.147,4.147H63.441
		c-2.248,0-4.148-1.899-4.148-4.147V96.44c0-4.143-3.358-7.5-7.5-7.5c-4.142,0-7.5,3.357-7.5,7.5v52.281
		c0,10.558,8.59,19.147,19.148,19.147h79.248c10.558,0,19.147-8.59,19.147-19.147V96.44C161.836,92.298,158.478,88.94,154.336,88.94
		z"/>
	<path d="M35.269,88.211c4.142,0,7.5-3.357,7.5-7.5c0-4.142-3.358-7.5-7.5-7.5c-10,0-18.135,8.135-18.135,18.134v41.45
		c0,9.999,8.135,18.134,18.135,18.134c4.142,0,7.5-3.357,7.5-7.5c0-4.143-3.358-7.5-7.5-7.5c-1.729,0-3.135-1.406-3.135-3.134
		v-41.45C32.135,89.617,33.541,88.211,35.269,88.211z"/>
	<path d="M170.862,73.211c-4.142,0-7.5,3.358-7.5,7.5c0,4.143,3.358,7.5,7.5,7.5c1.729,0,3.135,1.406,3.135,3.134v41.45
		c0,1.728-1.406,3.134-3.135,3.134c-4.142,0-7.5,3.357-7.5,7.5c0,4.143,3.358,7.5,7.5,7.5c9.999,0,18.135-8.135,18.135-18.134
		v-41.45C188.997,81.346,180.862,73.211,170.862,73.211z"/>
	<path d="M94.31,180.497c-4.142,0-7.5,3.357-7.5,7.5c0,1.729-1.406,3.135-3.135,3.135c-1.729,0-3.135-1.406-3.135-3.135
		c0-4.143-3.358-7.5-7.5-7.5c-4.142,0-7.5,3.357-7.5,7.5c0,10,8.135,18.135,18.135,18.135s18.135-8.135,18.135-18.135
		C101.81,183.854,98.453,180.497,94.31,180.497z"/>
	<path d="M133.09,180.497c-4.142,0-7.5,3.357-7.5,7.5c0,1.729-1.406,3.135-3.135,3.135c-1.729,0-3.137-1.406-3.137-3.135
		c0-4.143-3.358-7.5-7.5-7.5c-4.142,0-7.5,3.357-7.5,7.5c0,10,8.136,18.135,18.137,18.135c9.999,0,18.135-8.135,18.135-18.135
		C140.59,183.854,137.232,180.497,133.09,180.497z"/>
</g>
<g>
</g>
<g>
</g>
<g>
</g>
<g>
</g>
<g>
</g>
<g>
</g>
<g>
</g>
<g>
</g>
<g>
</g>
<g>
</g>
<g>
</g>
<g>
</g>
<g>
</g>
<g>
</g>
<g>
</g>
</svg>
