<?xml version="1.0" encoding="iso-8859-1"?>
<!-- Generator: Adobe Illustrator 18.0.0, SVG Export Plug-In . SVG Version: 6.00 Build 0)  -->
<!DOCTYPE svg PUBLIC "-//W3C//DTD SVG 1.1//EN" "http://www.w3.org/Graphics/SVG/1.1/DTD/svg11.dtd">
<svg version="1.1" id="Capa_1" xmlns="http://www.w3.org/2000/svg" xmlns:xlink="http://www.w3.org/1999/xlink" x="0px" y="0px"
	 viewBox="0 0 203.499 203.499" style="enable-background:new 0 0 203.499 203.499;" xml:space="preserve">
<g>
	<path d="M101.019,42.436c0.505,0.104,1.009,0.153,1.505,0.153c3.491,0,6.617-2.451,7.341-6.005
		c0.992-4.872,2.777-8.841,5.305-11.798h0c4.427-5.174,11.371-7.62,16.67-8.772c-0.151,2.534-0.529,5.473-1.344,8.424
		c-1.102,3.993,1.24,8.124,5.233,9.227c0.668,0.185,1.34,0.272,2.001,0.272c3.289,0,6.307-2.181,7.225-5.505
		c3.052-11.051,1.661-21.517,1.601-21.956c-0.519-3.765-3.776-6.561-7.57-6.475c-0.928,0.018-22.859,0.593-35.214,15.035
		c0,0-0.001,0.001-0.002,0.002c-4.202,4.915-7.097,11.156-8.603,18.552C94.341,37.649,96.961,41.61,101.019,42.436z"/>
	<path d="M176.913,138.307c-11.453-3.661-19.148-14.205-19.148-26.237c0-10.6,6.2-20.378,15.796-24.912
		c1.956-0.925,3.418-2.649,4.01-4.731c0.592-2.081,0.255-4.317-0.923-6.133c-10.028-15.452-26.857-24.678-45.019-24.678
		c-8.499,0-18.092,3.254-27.44,9.243c-9.35-5.99-18.941-9.243-27.44-9.243c-27.521,0-55.382,21.658-55.382,63.053
		c0,39.156,26.076,88.831,55.382,88.831c8.498,0,18.09-3.253,27.44-9.244c9.349,5.991,18.941,9.244,27.44,9.244
		c22.699,0,41.919-28.95,50.171-55.85C183.005,143.723,180.826,139.557,176.913,138.307z M131.63,188.499
		c-6.567,0-14.94-3.418-22.971-9.377c-1.327-0.985-2.898-1.478-4.469-1.478c-1.571,0-3.142,0.492-4.469,1.477
		c-8.033,5.96-16.405,9.378-22.971,9.378c-16.681,0-40.382-38.184-40.382-73.831c0-33.016,20.933-48.053,40.382-48.053
		c6.567,0,14.939,3.418,22.971,9.377c2.652,1.968,6.283,1.969,8.938-0.001c8.03-5.958,16.403-9.376,22.971-9.376
		c10.505,0,20.406,4.316,27.651,11.819c-10.245,7.965-16.515,20.384-16.515,33.635c0,15.987,8.798,30.275,22.522,37.555
		C157.049,171.568,142.684,188.499,131.63,188.499z"/>
</g>
<g>
</g>
<g>
</g>
<g>
</g>
<g>
</g>
<g>
</g>
<g>
</g>
<g>
</g>
<g>
</g>
<g>
</g>
<g>
</g>
<g>
</g>
<g>
</g>
<g>
</g>
<g>
</g>
<g>
</g>
</svg>
