<?xml version="1.0" encoding="iso-8859-1"?>
<!-- Generator: Adobe Illustrator 18.0.0, SVG Export Plug-In . SVG Version: 6.00 Build 0)  -->
<!DOCTYPE svg PUBLIC "-//W3C//DTD SVG 1.1//EN" "http://www.w3.org/Graphics/SVG/1.1/DTD/svg11.dtd">
<svg version="1.1" id="Capa_1" xmlns="http://www.w3.org/2000/svg" xmlns:xlink="http://www.w3.org/1999/xlink" x="0px" y="0px"
	 viewBox="0 0 129.36 129.36" style="enable-background:new 0 0 129.36 129.36;" xml:space="preserve">
<path d="M120.103,2.935C118.683,1.084,116.485,0,114.152,0H73.727C47.835,0,20.172,27.558,10.748,62.737
	c-5.668,21.148-3.319,41.245,6.283,53.761c6.363,8.293,15.618,12.86,26.061,12.86c11.862,0,24.097-5.785,34.781-15.44l-1.607,5.999
	c-1.072,4.001,1.302,8.114,5.303,9.185c0.65,0.175,1.304,0.258,1.946,0.258c3.312,0,6.342-2.21,7.239-5.561l15.221-56.802
	c0.034-0.126,0.067-0.251,0.102-0.377c0.01-0.036,0.02-0.072,0.028-0.108l15.292-57.071C122,7.188,121.522,4.784,120.103,2.935z
	 M91.496,63.077c-7.591,27.832-29.695,51.281-48.404,51.281c-5.836,0-10.6-2.353-14.159-6.991
	c-6.783-8.841-8.165-24.073-3.696-40.748C32.733,38.639,54.938,15,73.727,15h30.651L91.496,63.077z"/>
<g>
</g>
<g>
</g>
<g>
</g>
<g>
</g>
<g>
</g>
<g>
</g>
<g>
</g>
<g>
</g>
<g>
</g>
<g>
</g>
<g>
</g>
<g>
</g>
<g>
</g>
<g>
</g>
<g>
</g>
</svg>
