<?xml version="1.0" encoding="iso-8859-1"?>
<!-- Generator: Adobe Illustrator 18.0.0, SVG Export Plug-In . SVG Version: 6.00 Build 0)  -->
<!DOCTYPE svg PUBLIC "-//W3C//DTD SVG 1.1//EN" "http://www.w3.org/Graphics/SVG/1.1/DTD/svg11.dtd">
<svg version="1.1" id="Capa_1" xmlns="http://www.w3.org/2000/svg" xmlns:xlink="http://www.w3.org/1999/xlink" x="0px" y="0px"
	 viewBox="0 0 162.582 162.582" style="enable-background:new 0 0 162.582 162.582;" xml:space="preserve">
<g>
	<path d="M81.291,40.248L81.291,40.248L81.291,40.248c-18.416,0-34.944,8.191-46.167,21.109V47.748V7.5c0-4.143-3.357-7.5-7.5-7.5
		s-7.5,3.357-7.5,7.5v40.248v53.668c0,33.727,27.439,61.166,61.167,61.166s61.166-27.439,61.166-61.166
		C142.458,67.688,115.019,40.248,81.291,40.248z M81.291,147.582c-25.457,0-46.167-20.71-46.167-46.166
		c0-25.457,20.71-46.168,46.166-46.168h0.001l0,0c25.456,0,46.166,20.711,46.166,46.168
		C127.457,126.872,106.748,147.582,81.291,147.582z"/>
	<path d="M62.872,90.421c-2.891,0-5.73,1.17-7.771,3.22c-2.05,2.04-3.229,4.88-3.229,7.78c0,2.89,1.18,5.729,3.229,7.77
		c2.04,2.051,4.88,3.23,7.771,3.23c2.899,0,5.729-1.18,7.779-3.23c2.051-2.04,3.221-4.88,3.221-7.77c0-2.9-1.17-5.74-3.221-7.78
		C68.611,91.591,65.771,90.421,62.872,90.421z"/>
</g>
<g>
</g>
<g>
</g>
<g>
</g>
<g>
</g>
<g>
</g>
<g>
</g>
<g>
</g>
<g>
</g>
<g>
</g>
<g>
</g>
<g>
</g>
<g>
</g>
<g>
</g>
<g>
</g>
<g>
</g>
</svg>
