<?xml version="1.0" encoding="iso-8859-1"?>
<!-- Generator: Adobe Illustrator 18.0.0, SVG Export Plug-In . SVG Version: 6.00 Build 0)  -->
<!DOCTYPE svg PUBLIC "-//W3C//DTD SVG 1.1//EN" "http://www.w3.org/Graphics/SVG/1.1/DTD/svg11.dtd">
<svg version="1.1" id="Capa_1" xmlns="http://www.w3.org/2000/svg" xmlns:xlink="http://www.w3.org/1999/xlink" x="0px" y="0px"
	 viewBox="0 0 162.58 162.58" style="enable-background:new 0 0 162.58 162.58;" xml:space="preserve">
<path d="M81.29,40.249H58.087c-4.143,0-7.5,3.357-7.5,7.5s3.357,7.5,7.5,7.5H81.29c25.456,0,46.166,20.71,46.166,46.165
	c0,25.456-20.71,46.166-46.166,46.166c-25.457,0-46.167-20.71-46.167-46.166V47.749V7.5c0-4.143-3.357-7.5-7.5-7.5
	s-7.5,3.357-7.5,7.5v40.249v53.665c0,33.728,27.439,61.166,61.167,61.166s61.166-27.438,61.166-61.166
	C142.456,67.688,115.018,40.249,81.29,40.249z"/>
<g>
</g>
<g>
</g>
<g>
</g>
<g>
</g>
<g>
</g>
<g>
</g>
<g>
</g>
<g>
</g>
<g>
</g>
<g>
</g>
<g>
</g>
<g>
</g>
<g>
</g>
<g>
</g>
<g>
</g>
</svg>
