<?xml version="1.0" encoding="iso-8859-1"?>
<!-- Generator: Adobe Illustrator 18.0.0, SVG Export Plug-In . SVG Version: 6.00 Build 0)  -->
<!DOCTYPE svg PUBLIC "-//W3C//DTD SVG 1.1//EN" "http://www.w3.org/Graphics/SVG/1.1/DTD/svg11.dtd">
<svg version="1.1" id="Capa_1" xmlns="http://www.w3.org/2000/svg" xmlns:xlink="http://www.w3.org/1999/xlink" x="0px" y="0px"
	 viewBox="0 0 159.091 159.091" style="enable-background:new 0 0 159.091 159.091;" xml:space="preserve">
<g>
	<path d="M30.755,126.561c4.143,0,7.5-3.357,7.5-7.5V7.5c0-4.143-3.357-7.5-7.5-7.5s-7.5,3.357-7.5,7.5v111.561
		C23.255,123.203,26.612,126.561,30.755,126.561z"/>
	<path d="M131.563,83.796L74.305,56.511c-3.741-1.782-8.216-0.195-9.997,3.544c-1.782,3.739-0.195,8.215,3.544,9.997l45.044,21.465
		l-84.291,53.749c-3.492,2.228-4.519,6.864-2.292,10.356c1.431,2.243,3.854,3.469,6.331,3.469c1.38,0,2.776-0.381,4.025-1.177
		l95.699-61.023c2.299-1.466,3.621-4.063,3.453-6.785C135.655,87.385,134.024,84.969,131.563,83.796z"/>
</g>
<g>
</g>
<g>
</g>
<g>
</g>
<g>
</g>
<g>
</g>
<g>
</g>
<g>
</g>
<g>
</g>
<g>
</g>
<g>
</g>
<g>
</g>
<g>
</g>
<g>
</g>
<g>
</g>
<g>
</g>
</svg>
