<?xml version="1.0" encoding="iso-8859-1"?>
<!-- Generator: Adobe Illustrator 18.0.0, SVG Export Plug-In . SVG Version: 6.00 Build 0)  -->
<!DOCTYPE svg PUBLIC "-//W3C//DTD SVG 1.1//EN" "http://www.w3.org/Graphics/SVG/1.1/DTD/svg11.dtd">
<svg version="1.1" id="Capa_1" xmlns="http://www.w3.org/2000/svg" xmlns:xlink="http://www.w3.org/1999/xlink" x="0px" y="0px"
	 viewBox="0 0 150.762 150.762" style="enable-background:new 0 0 150.762 150.762;" xml:space="preserve">
<path d="M112.788,68.099c5.432-6.76,8.692-15.335,8.692-24.662v-3.993C121.48,17.694,103.786,0,82.037,0H42.106
	C20.357,0,2.663,17.694,2.663,39.444v3.993v63.888v3.993c0,21.749,17.694,39.444,39.443,39.444h66.551
	c21.749,0,39.442-17.694,39.442-39.444v-3.993C148.099,86.971,132.602,70.171,112.788,68.099z M17.663,39.444
	C17.663,25.965,28.627,15,42.106,15h39.931c13.479,0,24.443,10.965,24.443,24.444v3.993c0,13.479-10.965,24.444-24.443,24.444
	H17.663V43.437V39.444z M108.657,135.762H42.106c-13.478,0-24.443-10.965-24.443-24.444v-3.993V82.881h64.374h26.62
	c13.477,0,24.442,10.965,24.442,24.443v3.993C133.099,124.796,122.134,135.762,108.657,135.762z"/>
<g>
</g>
<g>
</g>
<g>
</g>
<g>
</g>
<g>
</g>
<g>
</g>
<g>
</g>
<g>
</g>
<g>
</g>
<g>
</g>
<g>
</g>
<g>
</g>
<g>
</g>
<g>
</g>
<g>
</g>
</svg>
