<?xml version="1.0" encoding="iso-8859-1"?>
<!-- Generator: Adobe Illustrator 18.0.0, SVG Export Plug-In . SVG Version: 6.00 Build 0)  -->
<!DOCTYPE svg PUBLIC "-//W3C//DTD SVG 1.1//EN" "http://www.w3.org/Graphics/SVG/1.1/DTD/svg11.dtd">
<svg version="1.1" id="Capa_1" xmlns="http://www.w3.org/2000/svg" xmlns:xlink="http://www.w3.org/1999/xlink" x="0px" y="0px"
	 viewBox="0 0 191.368 191.368" style="enable-background:new 0 0 191.368 191.368;" xml:space="preserve">
<path d="M183.868,124.478h-73.055l-2.967-3.106c7.69-4.521,15.921-11.957,22.088-18.679c8.404-9.161,22.503-27.311,22.503-45.939
	c0-31.294-25.46-56.754-56.754-56.754c-31.294,0-56.753,25.46-56.753,56.754c0,17.313,13.064,34.6,24.024,46.054
	c2.109,2.204,4.923,4.957,8.071,7.78H7.5c-4.142,0-7.5,3.357-7.5,7.5s3.358,7.5,7.5,7.5h83.634l3.717,3.893
	c-9.394,6.96-19.197,19.983-19.197,31.276c0,16.879,13.731,30.61,30.609,30.61c16.879,0,30.61-13.732,30.61-30.61
	c0-7.927-4.741-15.545-9.604-21.279h56.6c4.143,0,7.5-3.357,7.5-7.5C191.368,127.836,188.011,124.478,183.868,124.478z
	 M53.931,56.754C53.931,33.731,72.661,15,95.684,15c23.023,0,41.754,18.73,41.754,41.754c0,9.663-6.515,22.438-17.874,35.048
	c-10.116,11.23-20.057,17.729-23.515,18.685C87.369,107.035,53.931,77.549,53.931,56.754z M106.263,176.368
	c-8.607,0-15.609-7.003-15.609-15.61c0-6.913,10.253-17.755,15.265-20.743c5.113,3.351,15.955,14.064,15.955,20.743
	C121.873,169.365,114.87,176.368,106.263,176.368z"/>
<g>
</g>
<g>
</g>
<g>
</g>
<g>
</g>
<g>
</g>
<g>
</g>
<g>
</g>
<g>
</g>
<g>
</g>
<g>
</g>
<g>
</g>
<g>
</g>
<g>
</g>
<g>
</g>
<g>
</g>
</svg>
