<?xml version="1.0" encoding="iso-8859-1"?>
<!-- Generator: Adobe Illustrator 18.0.0, SVG Export Plug-In . SVG Version: 6.00 Build 0)  -->
<!DOCTYPE svg PUBLIC "-//W3C//DTD SVG 1.1//EN" "http://www.w3.org/Graphics/SVG/1.1/DTD/svg11.dtd">
<svg version="1.1" id="Capa_1" xmlns="http://www.w3.org/2000/svg" xmlns:xlink="http://www.w3.org/1999/xlink" x="0px" y="0px"
	 viewBox="0 0 149.636 149.636" style="enable-background:new 0 0 149.636 149.636;" xml:space="preserve">
<path d="M123.176,97.592H70.177l50.524-86.301c2.093-3.574,0.892-8.169-2.684-10.262c-3.574-2.094-8.169-0.892-10.262,2.684
	L88.242,37.045H26.46c-4.142,0-7.5,3.357-7.5,7.5c0,4.142,3.358,7.5,7.5,7.5h53l-50.524,86.301
	c-2.093,3.574-0.892,8.169,2.683,10.262c1.191,0.697,2.495,1.028,3.782,1.028c2.576,0,5.084-1.328,6.479-3.712l19.514-33.332h61.78
	c4.143,0,7.5-3.357,7.5-7.5C130.676,100.949,127.318,97.592,123.176,97.592z"/>
<g>
</g>
<g>
</g>
<g>
</g>
<g>
</g>
<g>
</g>
<g>
</g>
<g>
</g>
<g>
</g>
<g>
</g>
<g>
</g>
<g>
</g>
<g>
</g>
<g>
</g>
<g>
</g>
<g>
</g>
</svg>
