<?xml version="1.0" encoding="iso-8859-1"?>
<!-- Generator: Adobe Illustrator 18.0.0, SVG Export Plug-In . SVG Version: 6.00 Build 0)  -->
<!DOCTYPE svg PUBLIC "-//W3C//DTD SVG 1.1//EN" "http://www.w3.org/Graphics/SVG/1.1/DTD/svg11.dtd">
<svg version="1.1" id="Capa_1" xmlns="http://www.w3.org/2000/svg" xmlns:xlink="http://www.w3.org/1999/xlink" x="0px" y="0px"
	 viewBox="0 0 210.328 210.328" style="enable-background:new 0 0 210.328 210.328;" xml:space="preserve">
<g>
	<path d="M160.076,158.926l-53.324,30.786l-53.32-30.786c-3.587-2.072-8.175-0.843-10.245,2.745
		c-2.071,3.587-0.842,8.174,2.745,10.245l57.07,32.951c1.16,0.67,2.455,1.005,3.75,1.005s2.59-0.335,3.75-1.005l57.074-32.951
		c3.587-2.071,4.816-6.658,2.745-10.245C168.251,158.083,163.662,156.854,160.076,158.926z"/>
	<path d="M207.188,106.037l-36.48-26.07l36.48-26.07c2.019-1.442,3.192-3.788,3.138-6.268c-0.055-2.479-1.331-4.771-3.41-6.123
		L151.779,5.668c-2.586-1.682-5.938-1.607-8.448,0.186l-38.166,27.275L66.999,5.854c-2.511-1.793-5.862-1.867-8.447-0.187
		L3.413,41.506c-2.08,1.352-3.356,3.644-3.411,6.123s1.12,4.826,3.138,6.268l36.481,26.07L3.14,106.037
		c-2.018,1.442-3.192,3.788-3.138,6.268c0.055,2.479,1.331,4.771,3.411,6.123l55.139,35.839c1.244,0.81,2.666,1.212,4.087,1.212
		c1.53,0,3.059-0.468,4.36-1.398l38.166-27.275l38.166,27.275c1.302,0.93,2.83,1.398,4.36,1.398c1.421,0,2.843-0.403,4.088-1.212
		l55.137-35.84c2.079-1.352,3.355-3.644,3.41-6.123C210.381,109.826,209.206,107.479,207.188,106.037z M147.891,21.031
		l41.626,27.057l-31.709,22.661l-39.744-28.402L147.891,21.031z M144.909,79.967l-39.744,28.403L65.42,79.968l39.745-28.403
		L144.909,79.967z M20.81,48.088l41.628-27.057l29.827,21.315L52.52,70.749L20.81,48.088z M62.438,138.904L20.81,111.846
		l31.71-22.661l39.745,28.403L62.438,138.904z M147.891,138.904l-29.827-21.315l39.744-28.403l31.71,22.661L147.891,138.904z"/>
</g>
<g>
</g>
<g>
</g>
<g>
</g>
<g>
</g>
<g>
</g>
<g>
</g>
<g>
</g>
<g>
</g>
<g>
</g>
<g>
</g>
<g>
</g>
<g>
</g>
<g>
</g>
<g>
</g>
<g>
</g>
</svg>
