<?xml version="1.0" encoding="iso-8859-1"?>
<!-- Generator: Adobe Illustrator 18.0.0, SVG Export Plug-In . SVG Version: 6.00 Build 0)  -->
<!DOCTYPE svg PUBLIC "-//W3C//DTD SVG 1.1//EN" "http://www.w3.org/Graphics/SVG/1.1/DTD/svg11.dtd">
<svg version="1.1" id="Capa_1" xmlns="http://www.w3.org/2000/svg" xmlns:xlink="http://www.w3.org/1999/xlink" x="0px" y="0px"
	 viewBox="0 0 223.041 223.041" style="enable-background:new 0 0 223.041 223.041;" xml:space="preserve">
<g>
	<path d="M111.524,0C50.457,0,0.774,46.954,0.774,104.669c0,31.077,14.472,60.346,39.705,80.3c3.251,2.571,7.967,2.019,10.535-1.23
		c2.569-3.249,2.019-7.966-1.23-10.535c-21.613-17.092-34.01-42.072-34.01-68.534C15.774,55.225,58.727,15,111.524,15
		c52.793,0,95.743,40.225,95.743,89.669c0,49.448-42.95,89.678-95.743,89.678c-9.209,0-18.319-1.223-27.076-3.635
		c-1.915-0.528-3.961-0.273-5.688,0.705l-31.064,17.597c-3.604,2.042-4.871,6.618-2.829,10.223c1.38,2.437,3.918,3.805,6.532,3.805
		c1.252,0,2.522-0.314,3.689-0.976l28.42-16.099c9.112,2.244,18.521,3.38,28.016,3.38c61.064,0,110.743-46.958,110.743-104.678
		C222.267,46.954,172.588,0,111.524,0z"/>
	<path d="M114.67,71.85c-2.65-1.229-5.772-0.806-8.002,1.083l-57.89,49.056c-3.16,2.678-3.551,7.41-0.873,10.57
		c2.678,3.16,7.411,3.551,10.57,0.873l45.541-38.591v35.852c0,2.921,1.696,5.577,4.347,6.805c1.008,0.467,2.083,0.695,3.152,0.695
		c1.743,0,3.468-0.607,4.85-1.778l57.895-49.056c3.16-2.678,3.551-7.41,0.873-10.571c-2.678-3.16-7.41-3.552-10.57-0.874
		l-45.547,38.593V78.655C119.017,75.733,117.321,73.078,114.67,71.85z"/>
</g>
<g>
</g>
<g>
</g>
<g>
</g>
<g>
</g>
<g>
</g>
<g>
</g>
<g>
</g>
<g>
</g>
<g>
</g>
<g>
</g>
<g>
</g>
<g>
</g>
<g>
</g>
<g>
</g>
<g>
</g>
</svg>
