<?xml version="1.0" encoding="iso-8859-1"?>
<!-- Generator: Adobe Illustrator 18.0.0, SVG Export Plug-In . SVG Version: 6.00 Build 0)  -->
<!DOCTYPE svg PUBLIC "-//W3C//DTD SVG 1.1//EN" "http://www.w3.org/Graphics/SVG/1.1/DTD/svg11.dtd">
<svg version="1.1" id="Capa_1" xmlns="http://www.w3.org/2000/svg" xmlns:xlink="http://www.w3.org/1999/xlink" x="0px" y="0px"
	 viewBox="0 0 195.329 195.329" style="enable-background:new 0 0 195.329 195.329;" xml:space="preserve">
<g>
	<path d="M43.995,53.67C19.696,53.67,0,73.368,0,97.665c0,24.298,19.696,43.995,43.995,43.995c24.297,0,43.994-19.696,43.994-43.995
		C87.989,73.368,68.292,53.67,43.995,53.67z M43.995,126.659C28.007,126.659,15,113.652,15,97.665S28.007,68.67,43.995,68.67
		c15.987,0,28.994,13.007,28.994,28.995S59.982,126.659,43.995,126.659z"/>
	<path d="M151.335,53.67c-24.297,0-43.994,19.698-43.994,43.995c0,24.298,19.697,43.995,43.994,43.995s43.994-19.696,43.994-43.995
		C195.329,73.368,175.632,53.67,151.335,53.67z M151.335,126.659c-15.987,0-28.994-13.007-28.994-28.995
		s13.007-28.995,28.994-28.995s28.994,13.007,28.994,28.995S167.322,126.659,151.335,126.659z"/>
</g>
<g>
</g>
<g>
</g>
<g>
</g>
<g>
</g>
<g>
</g>
<g>
</g>
<g>
</g>
<g>
</g>
<g>
</g>
<g>
</g>
<g>
</g>
<g>
</g>
<g>
</g>
<g>
</g>
<g>
</g>
</svg>
