<?xml version="1.0" encoding="iso-8859-1"?>
<!-- Generator: Adobe Illustrator 18.0.0, SVG Export Plug-In . SVG Version: 6.00 Build 0)  -->
<!DOCTYPE svg PUBLIC "-//W3C//DTD SVG 1.1//EN" "http://www.w3.org/Graphics/SVG/1.1/DTD/svg11.dtd">
<svg version="1.1" id="Capa_1" xmlns="http://www.w3.org/2000/svg" xmlns:xlink="http://www.w3.org/1999/xlink" x="0px" y="0px"
	 viewBox="0 0 178.083 178.083" style="enable-background:new 0 0 178.083 178.083;" xml:space="preserve">
<path d="M152.235,8.9c0.417-2.195-0.166-4.462-1.591-6.184C149.219,0.996,147.101,0,144.867,0H42.777
	c-9.407,0-17.06,7.653-17.06,17.062v153.521c0,3.093,1.898,5.868,4.781,6.99c0.884,0.344,1.805,0.51,2.717,0.51
	c2.063,0,4.081-0.852,5.53-2.432l51.479-56.161h34.787c3.602,0,6.695-2.56,7.368-6.1l9.905-52.128
	c0.002-0.007,0.003-0.013,0.004-0.019L152.235,8.9z M118.802,104.49H86.925c-2.103,0-4.108,0.883-5.529,2.432l-40.68,44.38V17.062
	c0-1.117,0.944-2.062,2.06-2.062h93.031l-7.077,37.244H83.995c-4.142,0-7.5,3.357-7.5,7.5s3.358,7.5,7.5,7.5h41.884L118.802,104.49z
	"/>
<g>
</g>
<g>
</g>
<g>
</g>
<g>
</g>
<g>
</g>
<g>
</g>
<g>
</g>
<g>
</g>
<g>
</g>
<g>
</g>
<g>
</g>
<g>
</g>
<g>
</g>
<g>
</g>
<g>
</g>
</svg>
