<?xml version="1.0" encoding="iso-8859-1"?>
<!-- Generator: Adobe Illustrator 18.0.0, SVG Export Plug-In . SVG Version: 6.00 Build 0)  -->
<!DOCTYPE svg PUBLIC "-//W3C//DTD SVG 1.1//EN" "http://www.w3.org/Graphics/SVG/1.1/DTD/svg11.dtd">
<svg version="1.1" id="Capa_1" xmlns="http://www.w3.org/2000/svg" xmlns:xlink="http://www.w3.org/1999/xlink" x="0px" y="0px"
	 viewBox="0 0 189.032 189.032" style="enable-background:new 0 0 189.032 189.032;" xml:space="preserve">
<g>
	<path d="M96.524,118.794c-3.553-2.513-7.508-4.62-11.744-6.308V84.023c11.918-8.362,19.731-22.197,19.731-37.829
		c0-12.014-4.613-22.969-12.158-31.194h17.854c4.143,0,7.5-3.358,7.5-7.5c0-4.142-3.357-7.5-7.5-7.5H58.317
		C32.846,0,12.124,20.723,12.124,46.194s20.722,46.194,46.192,46.194c3.955,0,7.796-0.501,11.463-1.441v17.542
		c-3.505-0.518-7.1-0.788-10.748-0.788c-14.063,0-27.378,3.94-37.492,11.094c-10.9,7.711-16.904,18.212-16.904,29.571
		c0,11.36,6.004,21.863,16.904,29.573c10.114,7.154,23.429,11.093,37.492,11.093s27.378-3.939,37.492-11.093
		c10.9-7.71,16.904-18.213,16.904-29.573C113.428,137.007,107.424,126.505,96.524,118.794z M27.124,46.194
		C27.124,28.994,41.118,15,58.317,15c17.2,0,31.194,13.994,31.194,31.194S75.517,77.388,58.317,77.388
		C41.118,77.388,27.124,63.394,27.124,46.194z M59.032,174.032c-21.355,0-39.396-11.754-39.396-25.667
		c0-13.912,18.041-25.665,39.396-25.665c21.356,0,39.397,11.753,39.397,25.665C98.428,162.278,80.387,174.032,59.032,174.032z"/>
	<path d="M176.897,88.086h-21.031V67.056c0-4.142-3.357-7.5-7.5-7.5c-4.143,0-7.5,3.358-7.5,7.5v21.031h-21.029
		c-4.143,0-7.5,3.358-7.5,7.5c0,4.142,3.357,7.5,7.5,7.5h21.029v21.03c0,4.142,3.357,7.5,7.5,7.5c4.143,0,7.5-3.358,7.5-7.5v-21.03
		h21.031c4.143,0,7.5-3.358,7.5-7.5C184.397,91.444,181.04,88.086,176.897,88.086z"/>
</g>
<g>
</g>
<g>
</g>
<g>
</g>
<g>
</g>
<g>
</g>
<g>
</g>
<g>
</g>
<g>
</g>
<g>
</g>
<g>
</g>
<g>
</g>
<g>
</g>
<g>
</g>
<g>
</g>
<g>
</g>
</svg>
