<?xml version="1.0" encoding="iso-8859-1"?>
<!-- Generator: Adobe Illustrator 18.0.0, SVG Export Plug-In . SVG Version: 6.00 Build 0)  -->
<!DOCTYPE svg PUBLIC "-//W3C//DTD SVG 1.1//EN" "http://www.w3.org/Graphics/SVG/1.1/DTD/svg11.dtd">
<svg version="1.1" id="Capa_1" xmlns="http://www.w3.org/2000/svg" xmlns:xlink="http://www.w3.org/1999/xlink" x="0px" y="0px"
	 viewBox="0 0 165.445 165.445" style="enable-background:new 0 0 165.445 165.445;" xml:space="preserve">
<g>
	<path d="M82.722,0C43.113,0,10.888,32.224,10.888,71.832c0,38.924,31.553,69.414,71.834,69.414c4.143,0,7.5-3.357,7.5-7.5
		c0-4.142-3.357-7.5-7.5-7.5c-31.87,0-56.834-23.901-56.834-54.414C25.888,40.495,51.384,15,82.722,15
		c31.339,0,56.835,25.495,56.835,56.832c0,38.204-29.214,78.613-56.835,78.613c-4.142,0-7.5,3.357-7.5,7.5
		c0,4.143,3.358,7.5,7.5,7.5c17.653,0,35.971-11.051,50.255-30.318c13.715-18.498,21.58-41.568,21.58-63.295
		C154.557,32.224,122.333,0,82.722,0z"/>
	<path d="M64.135,87.27c-1.093,0.66-2.11,0.898-3.314,1.199c-0.411,0.107-0.717,0.309-0.984,0.604
		c-0.537,0.596-0.476,1.32-0.513,1.996c-0.004,2.307-0.004,4.604-0.01,6.896c0,0.852,0.848,1.209,1.672,1.088
		c1.07-0.154,2.144-0.318,3.19-0.607c2.464-0.658,4.646-1.879,6.655-3.422c0.197-0.191,0.396-0.391,0.596-0.574
		c3.88-3.619,5.945-8.076,5.988-13.379l0.031-25.809c0-1.65-1.35-3-3-3H53.257c-1.65,0-3,1.35-3,3v22.721c0,1.65,1.35,3,3,3h14.967
		C67.668,83.25,66.154,86.066,64.135,87.27z"/>
	<path d="M101.883,87.27c-1.093,0.66-2.11,0.898-3.314,1.199c-0.411,0.107-0.717,0.309-0.984,0.604
		c-0.537,0.596-0.476,1.32-0.513,1.996c-0.004,2.307-0.004,4.604-0.01,6.896c0,0.852,0.848,1.209,1.672,1.088
		c1.07-0.154,2.145-0.318,3.19-0.607c2.464-0.658,4.646-1.879,6.655-3.422c0.197-0.191,0.396-0.391,0.596-0.574
		c3.88-3.619,5.945-8.076,5.988-13.379l0.031-25.809c0-1.65-1.35-3-3-3H91.005c-1.65,0-3,1.35-3,3v22.721c0,1.65,1.35,3,3,3h14.967
		C105.416,83.25,103.902,86.066,101.883,87.27z"/>
</g>
<g>
</g>
<g>
</g>
<g>
</g>
<g>
</g>
<g>
</g>
<g>
</g>
<g>
</g>
<g>
</g>
<g>
</g>
<g>
</g>
<g>
</g>
<g>
</g>
<g>
</g>
<g>
</g>
<g>
</g>
</svg>
