<?xml version="1.0" encoding="iso-8859-1"?>
<!-- Generator: Adobe Illustrator 18.0.0, SVG Export Plug-In . SVG Version: 6.00 Build 0)  -->
<!DOCTYPE svg PUBLIC "-//W3C//DTD SVG 1.1//EN" "http://www.w3.org/Graphics/SVG/1.1/DTD/svg11.dtd">
<svg version="1.1" id="Capa_1" xmlns="http://www.w3.org/2000/svg" xmlns:xlink="http://www.w3.org/1999/xlink" x="0px" y="0px"
	 viewBox="0 0 254.803 254.803" style="enable-background:new 0 0 254.803 254.803;" xml:space="preserve">
<g>
	<path d="M7.5,166.347c-4.142,0-7.5,3.357-7.5,7.5v22.162c0,4.143,3.358,7.5,7.5,7.5c4.143,0,7.5-3.357,7.5-7.5v-22.162
		C15,169.705,11.643,166.347,7.5,166.347z"/>
	<path d="M42.372,95.183c-10.429,0-19.982,3.794-27.372,10.064V58.798c0-4.143-3.357-7.5-7.5-7.5c-4.142,0-7.5,3.357-7.5,7.5v78.748
		c0,0,0,0.002,0,0.003v0.006c0,4.143,3.358,7.5,7.5,7.5c4.143,0,7.5-3.357,7.5-7.5c0-15.093,12.279-27.372,27.372-27.372
		s27.372,12.279,27.372,27.372v58.454c0,4.143,3.357,7.5,7.5,7.5s7.5-3.357,7.5-7.5v-58.454
		C84.744,114.191,65.736,95.183,42.372,95.183z"/>
	<path d="M124.674,87.11c-4.143,0-7.5,3.357-7.5,7.5v101.399c0,4.143,3.357,7.5,7.5,7.5c4.143,0,7.5-3.357,7.5-7.5V94.61
		C132.174,90.467,128.816,87.11,124.674,87.11z"/>
	<path d="M124.674,51.293c-1.979,0-3.91,0.8-5.3,2.2c-1.4,1.4-2.2,3.33-2.2,5.3c0,1.981,0.8,3.91,2.2,5.311
		c1.39,1.39,3.32,2.199,5.3,2.199c1.97,0,3.91-0.81,5.3-2.199c1.4-1.4,2.2-3.33,2.2-5.311c0-1.97-0.8-3.899-2.2-5.3
		C128.584,52.093,126.654,51.293,124.674,51.293z"/>
	<path d="M239.724,115.482c-16.243-16.241-40.714-19.362-60.12-9.359V66.298h54.68c4.143,0,7.5-3.357,7.5-7.5
		c0-4.143-3.357-7.5-7.5-7.5h-62.18c-4.143,0-7.5,3.357-7.5,7.5v61.988c0,3.033,1.827,5.769,4.63,6.929
		c2.804,1.162,6.028,0.52,8.174-1.625c14.257-14.258,37.455-14.258,51.71-0.002c14.257,14.258,14.257,37.456,0.001,51.712
		c-14.259,14.257-37.456,14.256-51.711-0.001c-2.93-2.928-7.678-2.928-10.607,0c-2.929,2.93-2.929,7.678,0,10.607
		c10.054,10.053,23.256,15.079,36.463,15.078c13.202-0.001,26.409-5.026,36.462-15.077
		C259.829,168.302,259.829,135.588,239.724,115.482z"/>
</g>
<g>
</g>
<g>
</g>
<g>
</g>
<g>
</g>
<g>
</g>
<g>
</g>
<g>
</g>
<g>
</g>
<g>
</g>
<g>
</g>
<g>
</g>
<g>
</g>
<g>
</g>
<g>
</g>
<g>
</g>
</svg>
