<?xml version="1.0" encoding="iso-8859-1"?>
<!-- Generator: Adobe Illustrator 18.0.0, SVG Export Plug-In . SVG Version: 6.00 Build 0)  -->
<!DOCTYPE svg PUBLIC "-//W3C//DTD SVG 1.1//EN" "http://www.w3.org/Graphics/SVG/1.1/DTD/svg11.dtd">
<svg version="1.1" id="Capa_1" xmlns="http://www.w3.org/2000/svg" xmlns:xlink="http://www.w3.org/1999/xlink" x="0px" y="0px"
	 viewBox="0 0 228.533 228.533" style="enable-background:new 0 0 228.533 228.533;" xml:space="preserve">
<path d="M192.561,106.767c-11.563,0-20.97-9.407-20.97-20.97c0-11.564,9.407-20.974,20.97-20.974h28.472c4.143,0,7.5-3.357,7.5-7.5
	c0-4.143-3.357-7.5-7.5-7.5h-28.472c-19.834,0-35.97,16.138-35.97,35.974c0,19.834,16.136,35.97,35.97,35.97
	c11.564,0,20.972,9.409,20.972,20.976c0,11.561-9.408,20.968-20.972,20.968h-14.232h-0.002c-0.001,0-0.001,0-0.001,0
	c-32.438,0-45.561-35.934-49.697-51.383c-3.17-11.837-9.409-28.757-21.14-42.149C95.827,56.861,80.941,49.823,64.443,49.823
	C28.909,49.823,0,78.732,0,114.267s28.909,64.443,64.443,64.443c17.211,0,33.394-6.704,45.567-18.877
	c2.93-2.929,2.93-7.678,0.001-10.606c-2.929-2.929-7.678-2.93-10.606-0.001c-9.342,9.341-21.758,14.484-34.962,14.484
	C37.181,163.71,15,141.529,15,114.267s22.181-49.443,49.443-49.443c32.436,0,45.559,35.934,49.695,51.383
	c3.17,11.837,9.41,28.757,21.14,42.149c11.663,13.316,26.548,20.355,43.047,20.355c0,0,0.001,0,0.002,0h0.002h14.232
	c19.835,0,35.972-16.135,35.972-35.968C228.533,122.905,212.396,106.767,192.561,106.767z"/>
<g>
</g>
<g>
</g>
<g>
</g>
<g>
</g>
<g>
</g>
<g>
</g>
<g>
</g>
<g>
</g>
<g>
</g>
<g>
</g>
<g>
</g>
<g>
</g>
<g>
</g>
<g>
</g>
<g>
</g>
</svg>
