<?xml version="1.0" encoding="iso-8859-1"?>
<!-- Generator: Adobe Illustrator 18.0.0, SVG Export Plug-In . SVG Version: 6.00 Build 0)  -->
<!DOCTYPE svg PUBLIC "-//W3C//DTD SVG 1.1//EN" "http://www.w3.org/Graphics/SVG/1.1/DTD/svg11.dtd">
<svg version="1.1" id="Capa_1" xmlns="http://www.w3.org/2000/svg" xmlns:xlink="http://www.w3.org/1999/xlink" x="0px" y="0px"
	 viewBox="0 0 225.195 225.195" style="enable-background:new 0 0 225.195 225.195;" xml:space="preserve">
<g>
	<path d="M191.975,36.068H33.218C14.902,36.068,0,50.97,0,69.288v86.622c0,18.315,14.902,33.217,33.218,33.217h158.757
		c18.317,0,33.22-14.901,33.22-33.217V69.288C225.195,50.97,210.293,36.068,191.975,36.068z M15,142.87V90.068h195.195v52.802H15z
		 M33.218,51.068h158.757c10.047,0,18.22,8.173,18.22,18.22v5.78H15v-5.78C15,59.241,23.173,51.068,33.218,51.068z M191.975,174.127
		H33.218c-9.383,0-17.127-7.131-18.109-16.257h194.976C209.104,166.996,201.359,174.127,191.975,174.127z"/>
	<path d="M182.465,108.969H42.728c-4.142,0-7.5,3.357-7.5,7.5s3.358,7.5,7.5,7.5h139.737c4.143,0,7.5-3.357,7.5-7.5
		S186.608,108.969,182.465,108.969z"/>
</g>
<g>
</g>
<g>
</g>
<g>
</g>
<g>
</g>
<g>
</g>
<g>
</g>
<g>
</g>
<g>
</g>
<g>
</g>
<g>
</g>
<g>
</g>
<g>
</g>
<g>
</g>
<g>
</g>
<g>
</g>
</svg>
