<?xml version="1.0" encoding="iso-8859-1"?>
<!-- Generator: Adobe Illustrator 18.0.0, SVG Export Plug-In . SVG Version: 6.00 Build 0)  -->
<!DOCTYPE svg PUBLIC "-//W3C//DTD SVG 1.1//EN" "http://www.w3.org/Graphics/SVG/1.1/DTD/svg11.dtd">
<svg version="1.1" id="Capa_1" xmlns="http://www.w3.org/2000/svg" xmlns:xlink="http://www.w3.org/1999/xlink" x="0px" y="0px"
	 viewBox="0 0 224.989 224.989" style="enable-background:new 0 0 224.989 224.989;" xml:space="preserve">
<path d="M192.355,116.608h-6.299c18.113-3.301,31.892-19.181,31.892-38.228c0-21.436-17.44-38.874-38.876-38.874
	c-20.748,0-37.749,16.366-38.791,36.878c-4.654-14.526-18.286-25.073-34.34-25.073c-18.134,0-33.173,13.482-35.651,30.955
	c-5.059-12.164-17.064-20.74-31.038-20.74c-18.511,0-33.571,15.074-33.571,33.603c0,13.653,8.187,25.421,19.903,30.669
	C11.241,127.216,0,139.338,0,154.036v23.946c0,4.143,3.358,7.5,7.5,7.5s7.5-3.357,7.5-7.5v-23.946c0-7.378,6.013-13.38,13.403-13.38
	h21.903c7.393,0,13.407,6.002,13.407,13.38v23.946c0,4.143,3.358,7.5,7.5,7.5c4.142,0,7.5-3.357,7.5-7.5v-23.946v-2.248
	c0-8.453,6.894-15.331,15.367-15.331h23.958c8.467,0,15.355,6.873,15.36,15.321v26.204c0,4.143,3.358,7.5,7.5,7.5l0,0h0.001
	c4.142,0,7.5-3.357,7.5-7.5v-26.194c0-0.007-0.001-0.013-0.001-0.02v-2.572c0-9.698,7.911-17.589,17.634-17.589h26.325
	c9.723,0,17.633,7.891,17.633,17.589v28.786c0,4.143,3.358,7.5,7.5,7.5c4.142,0,7.5-3.357,7.5-7.5v-28.786
	C224.989,131.227,210.35,116.608,192.355,116.608z M179.072,54.506c13.166,0,23.876,10.71,23.876,23.874
	c0,13.161-10.711,23.868-23.876,23.868c-13.146,0-23.841-10.707-23.841-23.868C155.23,65.216,165.926,54.506,179.072,54.506z
	 M105.941,66.311c11.609,0,21.053,9.439,21.053,21.043s-9.444,21.044-21.053,21.044c-11.588,0-21.017-9.44-21.017-21.044
	S94.353,66.311,105.941,66.311z M39.252,76.526c10.257,0,18.601,8.345,18.601,18.603c0,10.251-8.344,18.591-18.601,18.591
	c-10.24,0-18.571-8.34-18.571-18.591C20.681,84.87,29.012,76.526,39.252,76.526z M69.876,133.495
	c-4.496-4.278-10.387-7.103-16.915-7.711c10.14-4.55,17.629-13.976,19.457-25.279c3.855,9.808,11.884,17.524,21.89,20.952h-0.228
	C84.208,121.457,75.426,126.188,69.876,133.495z M139.457,130.316c-5.495-5.471-13.069-8.858-21.421-8.858h-0.45
	c13.478-4.613,23.376-16.991,24.324-31.774c4.189,13.765,15.82,24.306,30.183,26.925h-6.063
	C155.08,116.608,145.38,122.028,139.457,130.316z"/>
<g>
</g>
<g>
</g>
<g>
</g>
<g>
</g>
<g>
</g>
<g>
</g>
<g>
</g>
<g>
</g>
<g>
</g>
<g>
</g>
<g>
</g>
<g>
</g>
<g>
</g>
<g>
</g>
<g>
</g>
</svg>
