<?xml version="1.0" encoding="iso-8859-1"?>
<!-- Generator: Adobe Illustrator 18.0.0, SVG Export Plug-In . SVG Version: 6.00 Build 0)  -->
<!DOCTYPE svg PUBLIC "-//W3C//DTD SVG 1.1//EN" "http://www.w3.org/Graphics/SVG/1.1/DTD/svg11.dtd">
<svg version="1.1" id="Capa_1" xmlns="http://www.w3.org/2000/svg" xmlns:xlink="http://www.w3.org/1999/xlink" x="0px" y="0px"
	 viewBox="0 0 163.563 163.563" style="enable-background:new 0 0 163.563 163.563;" xml:space="preserve">
<g>
	<path d="M81.781,0C45.123,0,15.298,29.825,15.298,66.484c0,22.942,17.612,50.521,25.185,61.313
		c5.783,8.242,25.545,34.786,40.493,35.723c0.265,0.027,0.533,0.044,0.805,0.044c0.272,0,0.541-0.017,0.806-0.044
		c14.948-0.938,34.71-27.48,40.493-35.723c7.572-10.792,25.185-38.37,25.185-61.313C148.265,29.825,118.44,0,81.781,0z
		 M111.409,118.31c-14.158,20.425-26.187,29.708-29.626,30.241c-3.434-0.528-15.466-9.809-29.629-30.241
		C38.673,98.861,30.298,79.003,30.298,66.484C30.298,38.096,53.394,15,81.781,15c28.388,0,51.484,23.096,51.484,51.484
		C133.265,79.003,124.891,98.861,111.409,118.31z"/>
	<path d="M81.781,32.676c-4.142,0-7.5,3.357-7.5,7.5c0,4.143,3.358,7.5,7.5,7.5c10.336,0,18.746,8.409,18.746,18.746
		c0,10.338-8.41,18.748-18.746,18.748c-10.336,0-18.745-8.41-18.745-18.748c0-4.143-3.358-7.5-7.5-7.5c-4.142,0-7.5,3.357-7.5,7.5
		c0,18.608,15.138,33.748,33.745,33.748c18.607,0,33.746-15.14,33.746-33.748C115.527,47.814,100.389,32.676,81.781,32.676z"/>
</g>
<g>
</g>
<g>
</g>
<g>
</g>
<g>
</g>
<g>
</g>
<g>
</g>
<g>
</g>
<g>
</g>
<g>
</g>
<g>
</g>
<g>
</g>
<g>
</g>
<g>
</g>
<g>
</g>
<g>
</g>
</svg>
