<?xml version="1.0" encoding="iso-8859-1"?>
<!-- Generator: Adobe Illustrator 18.0.0, SVG Export Plug-In . SVG Version: 6.00 Build 0)  -->
<!DOCTYPE svg PUBLIC "-//W3C//DTD SVG 1.1//EN" "http://www.w3.org/Graphics/SVG/1.1/DTD/svg11.dtd">
<svg version="1.1" id="Capa_1" xmlns="http://www.w3.org/2000/svg" xmlns:xlink="http://www.w3.org/1999/xlink" x="0px" y="0px"
	 viewBox="0 0 186.871 186.871" style="enable-background:new 0 0 186.871 186.871;" xml:space="preserve">
<path d="M180.018,128.547c4.414-10.847,6.854-22.699,6.854-35.112C186.871,41.915,144.956,0,93.436,0S0,41.915,0,93.435
	c0,51.521,41.915,93.437,93.436,93.437c38.776,0,72.107-23.745,86.227-57.457C179.797,129.134,179.917,128.846,180.018,128.547z
	 M171.871,93.435c0,8.828-1.487,17.31-4.189,25.235h-40.901l11-33.851c0.01-0.029,0.019-0.058,0.028-0.087l14.126-43.472
	C164.322,55.135,171.871,73.416,171.871,93.435z M75.865,118.67L65.003,85.246l28.433-20.659l28.435,20.659l-10.861,33.424H75.865z
	 M139.76,30.193l-13.016,40.054L97.942,49.321c-0.021-0.017-0.044-0.031-0.066-0.048L60.633,22.215
	C70.621,17.597,81.728,15,93.436,15C110.753,15,126.77,20.652,139.76,30.193z M46.598,30.559l34.078,24.758l-28.804,20.93
	c-0.019,0.013-0.037,0.026-0.055,0.039l-36.26,26.347C15.203,99.612,15,96.548,15,93.435C15,67.729,27.432,44.872,46.598,30.559z
	 M19.152,118.562l33.091-24.044l11.001,33.852c0.009,0.027,0.019,0.056,0.027,0.083l13.527,41.626
	C49.775,164.217,27.913,144.392,19.152,118.562z M93.436,171.871c-0.095,0-0.188-0.007-0.284-0.007L80.739,133.67h35.695
	c0.008,0,0.017,0.002,0.025,0.002c0.008,0,0.016-0.002,0.025-0.002h44.249C147.013,156.533,121.985,171.871,93.436,171.871z"/>
<g>
</g>
<g>
</g>
<g>
</g>
<g>
</g>
<g>
</g>
<g>
</g>
<g>
</g>
<g>
</g>
<g>
</g>
<g>
</g>
<g>
</g>
<g>
</g>
<g>
</g>
<g>
</g>
<g>
</g>
</svg>
