<?xml version="1.0" encoding="iso-8859-1"?>
<!-- Generator: Adobe Illustrator 18.0.0, SVG Export Plug-In . SVG Version: 6.00 Build 0)  -->
<!DOCTYPE svg PUBLIC "-//W3C//DTD SVG 1.1//EN" "http://www.w3.org/Graphics/SVG/1.1/DTD/svg11.dtd">
<svg version="1.1" id="Capa_1" xmlns="http://www.w3.org/2000/svg" xmlns:xlink="http://www.w3.org/1999/xlink" x="0px" y="0px"
	 viewBox="0 0 186.844 186.844" style="enable-background:new 0 0 186.844 186.844;" xml:space="preserve">
<path d="M93.421,0C41.909,0,0,41.909,0,93.422c0,23.833,8.976,46.527,25.273,63.902c2.834,3.021,7.579,3.173,10.601,0.339
	c3.021-2.834,3.173-7.58,0.339-10.601C22.534,132.478,15,113.428,15,93.422C15,50.18,50.18,15,93.421,15
	c43.242,0,78.423,35.18,78.423,78.422s-35.181,78.422-78.423,78.422c-7.666,0-15.181-1.091-22.42-3.249l7.671-29.984
	c4.746,1.158,9.643,1.747,14.642,1.747c31.508,0,57.142-23.654,57.142-52.728c0-29.075-25.634-52.73-57.142-52.73
	S36.172,58.555,36.172,87.63c0,10.477,3.32,20.601,9.602,29.277c2.429,3.355,7.119,4.106,10.473,1.676
	c3.355-2.429,4.105-7.118,1.676-10.473c-4.417-6.101-6.751-13.182-6.751-20.48c0-20.804,18.905-37.73,42.142-37.73
	c23.237,0,42.142,16.926,42.142,37.73c0,20.803-18.904,37.728-42.142,37.728c-3.734,0-7.389-0.428-10.924-1.277l10.499-41.039
	c1.026-4.013-1.395-8.098-5.407-9.125c-4.013-1.027-8.098,1.394-9.125,5.407l-23.599,92.243c-0.938,3.666,1.003,7.457,4.524,8.84
	c10.876,4.271,22.363,6.437,34.139,6.437c51.514,0,93.423-41.909,93.423-93.422S144.935,0,93.421,0z"/>
<g>
</g>
<g>
</g>
<g>
</g>
<g>
</g>
<g>
</g>
<g>
</g>
<g>
</g>
<g>
</g>
<g>
</g>
<g>
</g>
<g>
</g>
<g>
</g>
<g>
</g>
<g>
</g>
<g>
</g>
</svg>
