<?xml version="1.0" encoding="iso-8859-1"?>
<!-- Generator: Adobe Illustrator 18.0.0, SVG Export Plug-In . SVG Version: 6.00 Build 0)  -->
<!DOCTYPE svg PUBLIC "-//W3C//DTD SVG 1.1//EN" "http://www.w3.org/Graphics/SVG/1.1/DTD/svg11.dtd">
<svg version="1.1" id="Capa_1" xmlns="http://www.w3.org/2000/svg" xmlns:xlink="http://www.w3.org/1999/xlink" x="0px" y="0px"
	 viewBox="0 0 233.258 233.258" style="enable-background:new 0 0 233.258 233.258;" xml:space="preserve">
<g>
	<path d="M209.023,126.586c-4.022,0.989-6.481,5.052-5.492,9.074c0.667,2.714,1.006,5.489,1.006,8.249
		c0,14.106-8.722,27.596-24.559,37.985c-16.813,11.029-39.311,17.103-63.35,17.103c-24.04,0-46.538-6.074-63.35-17.103
		c-15.836-10.389-24.558-23.879-24.558-37.985c0-2.728,0.329-5.466,0.978-8.141c0.977-4.025-1.495-8.08-5.52-9.057
		c-4.028-0.977-8.081,1.495-9.057,5.52c-0.93,3.831-1.401,7.76-1.401,11.678c0,19.329,11.127,37.273,31.331,50.527
		c19.229,12.614,44.648,19.561,71.578,19.561c26.929,0,52.349-6.947,71.577-19.561c20.204-13.254,31.331-31.198,31.331-50.527
		c0-3.965-0.484-7.946-1.439-11.831C217.108,128.056,213.048,125.598,209.023,126.586z"/>
	<path d="M86.116,158.914c-2.813-3.039-7.558-3.222-10.599-0.409c-3.04,2.814-3.223,7.559-0.409,10.599
		c7.987,8.629,23.897,13.989,41.521,13.989c17.622,0,33.531-5.36,41.519-13.989c2.814-3.04,2.631-7.785-0.408-10.599
		c-3.04-2.814-7.785-2.631-10.599,0.408c-4.23,4.569-15.305,9.179-30.512,9.179C101.42,168.093,90.345,163.483,86.116,158.914z"/>
	<circle cx="81.891" cy="127.71" r="13.293"/>
	<circle cx="151.366" cy="127.71" r="13.294"/>
	<path d="M204.188,84.403c-7.055,0-13.778,2.561-19.001,7.067c-16.328-9.912-36.613-15.907-58.476-17.32l10.791-34.721l31.457,9.578
		c2.589,10.444,12.043,18.209,23.276,18.209c13.222,0,23.979-10.757,23.979-23.979c0-13.221-10.757-23.977-23.979-23.977
		c-4.142,0-7.5,3.358-7.5,7.5s3.358,7.5,7.5,7.5c4.951,0,8.979,4.027,8.979,8.977c0,4.951-4.028,8.979-8.979,8.979
		c-4.95,0-8.978-4.028-8.978-8.979c0-3.301-2.158-6.213-5.315-7.175l-43.204-13.154c-3.946-1.201-8.122,1.01-9.347,4.949
		l-14.318,46.07c-23.584,0.833-45.551,6.951-63.001,17.544c-5.223-4.507-11.946-7.068-19.001-7.068
		C13.041,84.403,0,97.445,0,113.475c0,4.142,3.358,7.5,7.5,7.5s7.5-3.358,7.5-7.5c0-7.759,6.312-14.071,14.07-14.071
		c4.627,0,8.961,2.277,11.593,6.09c1.137,1.646,2.884,2.771,4.853,3.123c1.968,0.351,3.998-0.098,5.634-1.249
		C67.905,95.583,91.763,88.823,116.61,88.82c0.007,0,0.014,0.001,0.021,0.001c0.007,0,0.013-0.001,0.02-0.001
		c24.816,0.004,48.645,6.747,65.393,18.503c1.613,1.159,3.622,1.634,5.585,1.313c2.014-0.328,3.807-1.463,4.966-3.142
		c2.632-3.813,6.966-6.09,11.593-6.09c7.758,0,14.07,6.313,14.07,14.071c0,4.142,3.358,7.5,7.5,7.5s7.5-3.358,7.5-7.5
		C233.258,97.445,220.217,84.403,204.188,84.403z"/>
</g>
<g>
</g>
<g>
</g>
<g>
</g>
<g>
</g>
<g>
</g>
<g>
</g>
<g>
</g>
<g>
</g>
<g>
</g>
<g>
</g>
<g>
</g>
<g>
</g>
<g>
</g>
<g>
</g>
<g>
</g>
</svg>
