<?xml version="1.0" encoding="iso-8859-1"?>
<!-- Generator: Adobe Illustrator 18.0.0, SVG Export Plug-In . SVG Version: 6.00 Build 0)  -->
<!DOCTYPE svg PUBLIC "-//W3C//DTD SVG 1.1//EN" "http://www.w3.org/Graphics/SVG/1.1/DTD/svg11.dtd">
<svg version="1.1" id="Capa_1" xmlns="http://www.w3.org/2000/svg" xmlns:xlink="http://www.w3.org/1999/xlink" x="0px" y="0px"
	 viewBox="0 0 213.289 213.289" style="enable-background:new 0 0 213.289 213.289;" xml:space="preserve">
<g>
	<path d="M122.165,192.4c-4.785,0.814-9.67,1.227-14.521,1.227c-47.412,0-85.983-38.571-85.983-85.981
		c0-5.387,0.497-10.759,1.478-15.966c0.323-1.714,0.038-3.487-0.805-5.014c-3.927-7.11-6.003-15.174-6.003-23.318
		C16.33,36.688,38.021,15,64.683,15c4.142,0,7.5-3.358,7.5-7.5S68.825,0,64.683,0C29.75,0,1.33,28.417,1.33,63.347
		c0,9.767,2.279,19.448,6.612,28.166c-0.851,5.296-1.281,10.709-1.281,16.132c0,55.681,45.301,100.981,100.983,100.981
		c5.691,0,11.422-0.484,17.035-1.438c4.084-0.695,6.831-4.568,6.137-8.651C130.121,194.453,126.25,191.706,122.165,192.4z"/>
	<path d="M207.052,125.477c1.045-5.89,1.574-11.877,1.574-17.832c0-55.684-45.3-100.987-100.981-100.987
		c-5.243,0-10.52,0.408-15.684,1.213c-4.093,0.638-6.893,4.473-6.255,8.566c0.638,4.093,4.474,6.894,8.566,6.255
		c4.401-0.686,8.901-1.034,13.373-1.034c47.41,0,85.981,38.574,85.981,85.987c0,5.765-0.582,11.567-1.729,17.245
		c-0.317,1.571-0.123,3.203,0.554,4.655c2.992,6.415,4.508,13.278,4.508,20.398c0,26.658-21.689,48.346-48.349,48.346
		c-4.142,0-7.5,3.358-7.5,7.5s3.358,7.5,7.5,7.5c34.931,0,63.349-28.417,63.349-63.346
		C211.959,141.45,210.31,133.232,207.052,125.477z"/>
	<path d="M145.904,124.689c0-4.476-0.88-8.307-2.611-11.384c-1.731-3.079-4.176-5.661-7.27-7.684
		c-3.098-2.004-6.902-3.742-11.309-5.147c-4.361-1.401-9.359-2.71-14.848-3.893c-4.347-1.003-7.523-1.779-9.421-2.31
		c-1.906-0.526-3.799-1.256-5.632-2.179c-1.849-0.927-3.323-2.049-4.387-3.341c-1.068-1.313-1.59-2.829-1.59-4.626
		c0-2.902,1.529-5.319,4.679-7.386c3.101-2.033,7.242-3.063,12.306-3.063c5.539,0,9.447,0.921,11.949,2.82
		c2.467,1.882,4.612,4.525,6.367,7.87c1.396,2.399,2.628,4.034,3.793,5.062c1.445,1.277,3.577,1.55,5.111,1.55
		c2.454,0,4.529-0.867,6.168-2.573c1.641-1.71,2.471-3.654,2.471-5.777c0-2.333-0.669-4.757-1.987-7.205
		c-1.311-2.442-3.428-4.817-6.287-7.053c-2.857-2.228-6.496-4.042-10.821-5.392c-4.332-1.336-9.533-2.02-15.462-2.02
		c-7.431,0-13.982,1.027-19.467,3.06c-5.486,2.025-9.742,4.971-12.643,8.753c-2.899,3.784-4.372,8.169-4.372,13.029
		c0,5.104,1.393,9.435,4.14,12.878c2.748,3.438,6.517,6.188,11.2,8.179c4.704,2,10.602,3.765,17.526,5.247
		c5.152,1.076,9.355,2.118,12.501,3.096c3.095,0.961,5.663,2.38,7.63,4.217c1.961,1.84,2.957,4.265,2.957,7.204
		c0,3.769-1.794,6.818-5.479,9.338c-3.632,2.474-8.423,3.729-14.229,3.729c-4.223,0-7.685-0.623-10.28-1.852
		c-2.593-1.227-4.637-2.813-6.073-4.71c-1.426-1.888-2.775-4.274-4.014-7.108c-1.007-2.369-2.244-4.188-3.67-5.396
		c-1.426-1.207-3.196-1.822-5.263-1.822c-2.581,0-4.647,0.765-6.311,2.335c-1.647,1.543-2.483,3.427-2.483,5.601
		c0,3.742,1.391,7.643,4.131,11.601c2.751,3.964,6.372,7.174,10.765,9.545c6.199,3.287,14.165,4.95,23.694,4.95
		c7.941,0,14.912-1.22,20.72-3.63c5.798-2.412,10.262-5.792,13.269-10.048C144.377,134.9,145.904,130.034,145.904,124.689z"/>
</g>
<g>
</g>
<g>
</g>
<g>
</g>
<g>
</g>
<g>
</g>
<g>
</g>
<g>
</g>
<g>
</g>
<g>
</g>
<g>
</g>
<g>
</g>
<g>
</g>
<g>
</g>
<g>
</g>
<g>
</g>
</svg>
