<?xml version="1.0" encoding="iso-8859-1"?>
<!-- Generator: Adobe Illustrator 18.0.0, SVG Export Plug-In . SVG Version: 6.00 Build 0)  -->
<!DOCTYPE svg PUBLIC "-//W3C//DTD SVG 1.1//EN" "http://www.w3.org/Graphics/SVG/1.1/DTD/svg11.dtd">
<svg version="1.1" id="Capa_1" xmlns="http://www.w3.org/2000/svg" xmlns:xlink="http://www.w3.org/1999/xlink" x="0px" y="0px"
	 viewBox="0 0 182.303 182.303" style="enable-background:new 0 0 182.303 182.303;" xml:space="preserve">
<g>
	<path d="M171.512,124.697c-9.844-3.715-16.506-10.389-23.48-19.268c-2.55-3.245-2.618-5.998-2.29-7.642l19.678-11.367
		c3.587-2.071,4.815-6.659,2.743-10.246c-2.072-3.587-6.66-4.813-10.246-2.742L135.953,86.12c-1.111,0.642-2.038,1.558-2.694,2.659
		c-2.782,4.677-5.286,15.398,2.978,25.917c6.491,8.264,14.036,16.543,25.202,21.977c-1.212,0.403-2.626,0.832-4.268,1.28
		c-0.061,0.017-0.122,0.034-0.182,0.052c-6.329,1.899-10.174,5.612-11.713,11.325c-0.581-0.085-1.441-0.288-2.633-0.751
		c-12.042-4.684-23.109,1.125-32.346,7.422c-9.178,6.257-13.324,7.313-19.145,7.313s-9.966-1.056-19.145-7.313
		c-9.237-6.297-20.301-12.102-32.347-7.422c-1.191,0.463-2.052,0.666-2.633,0.751c-1.539-5.714-5.384-9.426-11.712-11.325
		c-0.061-0.018-0.121-0.035-0.182-0.052c-1.642-0.448-3.055-0.877-4.267-1.279c11.163-5.434,18.708-13.713,25.201-21.977
		c8.264-10.52,5.76-21.241,2.978-25.918c-0.656-1.102-1.583-2.018-2.694-2.659L24.387,73.433c-3.587-2.071-8.174-0.844-10.246,2.742
		c-2.072,3.587-0.844,8.175,2.743,10.246l19.71,11.386c0.302,1.561,0.263,4.333-2.322,7.623
		c-6.976,8.879-13.638,15.553-23.478,19.267C3.387,127.49-0.241,131.63,0.012,137c0.405,8.585,10.861,12.604,21.07,15.396
		c0.867,0.267,1.252,0.494,1.379,0.581c0.036,0.091,0.105,0.293,0.174,0.665c0.719,3.825,3.057,7.089,6.413,8.954
		c2.996,1.664,8.211,3.009,16.046-0.037c3.786-1.473,8.374-1.043,18.462,5.836c10.878,7.415,17.841,9.918,27.594,9.918
		c9.752,0,16.715-2.503,27.594-9.918c10.089-6.88,14.677-7.309,18.462-5.836c7.836,3.047,13.052,1.702,16.048,0.036
		c3.357-1.865,5.694-5.13,6.413-8.957c0.069-0.369,0.138-0.57,0.174-0.661c0.128-0.087,0.512-0.314,1.379-0.581
		c10.208-2.793,20.664-6.811,21.07-15.396C182.544,131.63,178.917,127.49,171.512,124.697z"/>
	<path d="M45.249,71.02c4.142,0,7.5-3.357,7.5-7.5v-5.863c0-21.321,17.347-38.668,38.67-38.668
		c21.321,0,38.667,17.347,38.667,38.668v5.863c0,4.143,3.358,7.5,7.5,7.5c4.142,0,7.5-3.357,7.5-7.5v-5.863
		c0-29.593-24.075-53.668-53.667-53.668c-29.594,0-53.67,24.075-53.67,53.668v5.863C37.749,67.663,41.107,71.02,45.249,71.02z"/>
</g>
<g>
</g>
<g>
</g>
<g>
</g>
<g>
</g>
<g>
</g>
<g>
</g>
<g>
</g>
<g>
</g>
<g>
</g>
<g>
</g>
<g>
</g>
<g>
</g>
<g>
</g>
<g>
</g>
<g>
</g>
</svg>
