<?xml version="1.0" encoding="iso-8859-1"?>
<!-- Generator: Adobe Illustrator 18.0.0, SVG Export Plug-In . SVG Version: 6.00 Build 0)  -->
<!DOCTYPE svg PUBLIC "-//W3C//DTD SVG 1.1//EN" "http://www.w3.org/Graphics/SVG/1.1/DTD/svg11.dtd">
<svg version="1.1" id="Capa_1" xmlns="http://www.w3.org/2000/svg" xmlns:xlink="http://www.w3.org/1999/xlink" x="0px" y="0px"
	 viewBox="0 0 317.531 317.531" style="enable-background:new 0 0 317.531 317.531;" xml:space="preserve">
<g>
	<path d="M270.275,141.93c-3.134,0-6.223,0.302-9.246,0.903c-3.289-15.779-11.423-30.182-23.436-41.249
		c-14.363-13.231-33.037-20.518-52.582-20.518c-9.533,0-19.263,1.818-28.139,5.256c-3.862,1.497-5.78,5.841-4.284,9.703
		c1.496,3.863,5.838,5.781,9.703,4.284c7.165-2.776,15.022-4.244,22.72-4.244c32.701,0,59.532,24.553,62.411,57.112
		c0.211,2.386,1.548,4.527,3.6,5.763c2.052,1.236,4.571,1.419,6.778,0.49c3.948-1.66,8.146-2.501,12.476-2.501
		c17.786,0,32.256,14.475,32.256,32.267c0,17.792-14.473,32.268-32.263,32.268c-1.002,0-106.599-0.048-110.086-0.061
		c-3.841-0.084-7.154,2.778-7.591,6.659c-0.464,4.116,2.497,7.829,6.613,8.292c0.958,0.108,109.962,0.109,111.064,0.109
		c26.061,0,47.263-21.205,47.263-47.268C317.531,163.134,296.332,141.93,270.275,141.93z"/>
	<path d="M7.5,153.918c-4.142,0-7.5,3.358-7.5,7.5v60.039c0,4.142,3.358,7.5,7.5,7.5s7.5-3.358,7.5-7.5v-60.039
		C15,157.276,11.642,153.918,7.5,153.918z"/>
	<path d="M45.917,142.037c-4.142,0-7.5,3.358-7.5,7.5v71.07c0,4.142,3.358,7.5,7.5,7.5s7.5-3.358,7.5-7.5v-71.07
		C53.417,145.395,50.059,142.037,45.917,142.037z"/>
	<path d="M85.264,110.21c-4.142,0-7.5,3.358-7.5,7.5v111c0,4.142,3.358,7.5,7.5,7.5c4.142,0,7.5-3.358,7.5-7.5v-111
		C92.764,113.568,89.406,110.21,85.264,110.21z"/>
	<path d="M125.551,111.481c-4.142,0-7.5,3.358-7.5,7.5v109.826c0,4.142,3.358,7.5,7.5,7.5c4.142,0,7.5-3.358,7.5-7.5V118.981
		C133.051,114.839,129.693,111.481,125.551,111.481z"/>
</g>
<g>
</g>
<g>
</g>
<g>
</g>
<g>
</g>
<g>
</g>
<g>
</g>
<g>
</g>
<g>
</g>
<g>
</g>
<g>
</g>
<g>
</g>
<g>
</g>
<g>
</g>
<g>
</g>
<g>
</g>
</svg>
