<?xml version="1.0" encoding="iso-8859-1"?>
<!-- Generator: Adobe Illustrator 18.0.0, SVG Export Plug-In . SVG Version: 6.00 Build 0)  -->
<!DOCTYPE svg PUBLIC "-//W3C//DTD SVG 1.1//EN" "http://www.w3.org/Graphics/SVG/1.1/DTD/svg11.dtd">
<svg version="1.1" id="Capa_1" xmlns="http://www.w3.org/2000/svg" xmlns:xlink="http://www.w3.org/1999/xlink" x="0px" y="0px"
	 viewBox="0 0 193.672 193.672" style="enable-background:new 0 0 193.672 193.672;" xml:space="preserve">
<g>
	<path d="M186.172,97.455c-4.143,0-7.5,3.358-7.5,7.5v30.005c0,12.412-10.097,22.509-22.507,22.509
		c-12.411,0-22.509-10.097-22.509-22.509v-30.005c0-4.142-3.357-7.5-7.5-7.5c-4.143,0-7.5,3.358-7.5,7.5v30.005
		c0,20.683,16.826,37.509,37.509,37.509c20.682,0,37.507-16.826,37.507-37.509v-30.005
		C193.672,100.813,190.314,97.455,186.172,97.455z"/>
	<path d="M127.53,66.212c4.143,0,7.5-3.358,7.5-7.5c0-20.683-16.826-37.51-37.508-37.51c-20.683,0-37.509,16.827-37.509,37.51
		v46.243v30.005c0,12.412-10.097,22.509-22.508,22.509C25.096,157.469,15,147.372,15,134.96v-30.005c0-4.142-3.358-7.5-7.5-7.5
		c-4.143,0-7.5,3.358-7.5,7.5v30.005c0,20.683,16.825,37.509,37.506,37.509c20.682,0,37.508-16.826,37.508-37.509v-30.005V58.712
		c0-12.412,10.098-22.51,22.509-22.51c12.411,0,22.508,10.098,22.508,22.51C120.03,62.854,123.388,66.212,127.53,66.212z"/>
</g>
<g>
</g>
<g>
</g>
<g>
</g>
<g>
</g>
<g>
</g>
<g>
</g>
<g>
</g>
<g>
</g>
<g>
</g>
<g>
</g>
<g>
</g>
<g>
</g>
<g>
</g>
<g>
</g>
<g>
</g>
</svg>
