<?xml version="1.0" encoding="iso-8859-1"?>
<!-- Generator: Adobe Illustrator 18.0.0, SVG Export Plug-In . SVG Version: 6.00 Build 0)  -->
<!DOCTYPE svg PUBLIC "-//W3C//DTD SVG 1.1//EN" "http://www.w3.org/Graphics/SVG/1.1/DTD/svg11.dtd">
<svg version="1.1" id="Capa_1" xmlns="http://www.w3.org/2000/svg" xmlns:xlink="http://www.w3.org/1999/xlink" x="0px" y="0px"
	 viewBox="0 0 174.281 174.281" style="enable-background:new 0 0 174.281 174.281;" xml:space="preserve">
<path d="M155.201,106.744c-0.014-0.619-0.026-1.145-0.026-1.563c0-19.166-7.583-58.07-58.371-103.283
	c-2.727-2.429-6.806-2.539-9.662-0.263c-2.855,2.276-3.656,6.277-1.897,9.478c0.045,0.082,4.516,8.516,4.79,19.784
	c0.368,15.157-6.874,28.136-21.524,38.574c-3.374,2.404-4.16,7.087-1.756,10.461c2.403,3.373,7.088,4.16,10.46,1.756
	c23.326-16.62,28.045-36.617,27.826-50.647c30.113,33.147,35.134,59.967,35.134,74.141c0,0.506,0.013,1.142,0.03,1.892
	c0.156,7.118,0.571,26.024-11.872,38.743c-8.741,8.935-22.521,13.465-40.959,13.465c-22.947,0-38.742-6.406-46.946-19.042
	c-6.396-9.85-6.396-20.631-6.396-24.194c0-17.447,12.706-44.31,28.323-59.88c2.933-2.925,2.94-7.674,0.016-10.606
	c-2.924-2.934-7.673-2.94-10.606-0.017c-18.66,18.605-32.732,48.915-32.732,70.523c0,12.453,2.966,23.335,8.815,32.343
	c11.148,17.168,31.176,25.873,59.527,25.873c22.625,0,40.013-6.048,51.681-17.975C155.91,139.077,155.377,114.741,155.201,106.744z"
	/>
<g>
</g>
<g>
</g>
<g>
</g>
<g>
</g>
<g>
</g>
<g>
</g>
<g>
</g>
<g>
</g>
<g>
</g>
<g>
</g>
<g>
</g>
<g>
</g>
<g>
</g>
<g>
</g>
<g>
</g>
</svg>
