<?xml version="1.0" encoding="iso-8859-1"?>
<!-- Generator: Adobe Illustrator 18.0.0, SVG Export Plug-In . SVG Version: 6.00 Build 0)  -->
<!DOCTYPE svg PUBLIC "-//W3C//DTD SVG 1.1//EN" "http://www.w3.org/Graphics/SVG/1.1/DTD/svg11.dtd">
<svg version="1.1" id="Capa_1" xmlns="http://www.w3.org/2000/svg" xmlns:xlink="http://www.w3.org/1999/xlink" x="0px" y="0px"
	 viewBox="0 0 202.882 202.882" style="enable-background:new 0 0 202.882 202.882;" xml:space="preserve">
<g>
	<path d="M122.133,0.733H80.748C36.224,0.733,0,36.956,0,81.482v39.921c0,44.524,36.224,80.746,80.748,80.746h97.053
		c13.829,0,25.08-11.25,25.08-25.078V81.482C202.882,36.956,166.658,0.733,122.133,0.733z M187.882,177.071
		c0,5.557-4.522,10.078-10.08,10.078H80.748C44.495,187.149,15,157.655,15,121.403V81.482c0-36.254,29.495-65.749,65.748-65.749
		h41.385c36.254,0,65.748,29.495,65.748,65.749V177.071z"/>
	<path d="M127.483,47.26c-3.555,2.125-4.715,6.73-2.589,10.286c7.902,13.221,12.08,28.399,12.08,43.895
		c0,15.12-3.988,29.979-11.533,42.971c-2.08,3.582-0.863,8.172,2.719,10.252c1.186,0.688,2.481,1.016,3.76,1.016
		c2.585,0,5.101-1.338,6.493-3.735c8.872-15.277,13.562-32.741,13.562-50.504c0-18.205-4.912-36.044-14.205-51.591
		C135.644,46.294,131.039,45.135,127.483,47.26z"/>
	<path d="M89.522,112.827c-3.724-1.812-8.213-0.262-10.025,3.463L65.58,144.898c-1.812,3.725-0.262,8.213,3.463,10.025
		c1.057,0.514,2.174,0.757,3.275,0.757c2.78,0,5.452-1.552,6.749-4.221l13.917-28.608C94.798,119.127,93.247,114.639,89.522,112.827
		z"/>
	<path d="M81.851,76.771c2.89,0,5.73-1.17,7.77-3.22c2.05-2.05,3.23-4.88,3.23-7.78c0-2.9-1.18-5.73-3.23-7.78
		c-2.04-2.05-4.88-3.22-7.77-3.22c-2.9,0-5.73,1.17-7.78,3.22c-2.05,2.05-3.22,4.89-3.22,7.78c0,2.9,1.17,5.73,3.22,7.78
		C76.121,75.601,78.951,76.771,81.851,76.771z"/>
</g>
<g>
</g>
<g>
</g>
<g>
</g>
<g>
</g>
<g>
</g>
<g>
</g>
<g>
</g>
<g>
</g>
<g>
</g>
<g>
</g>
<g>
</g>
<g>
</g>
<g>
</g>
<g>
</g>
<g>
</g>
</svg>
