<?xml version="1.0" encoding="iso-8859-1"?>
<!-- Generator: Adobe Illustrator 18.0.0, SVG Export Plug-In . SVG Version: 6.00 Build 0)  -->
<!DOCTYPE svg PUBLIC "-//W3C//DTD SVG 1.1//EN" "http://www.w3.org/Graphics/SVG/1.1/DTD/svg11.dtd">
<svg version="1.1" id="Capa_1" xmlns="http://www.w3.org/2000/svg" xmlns:xlink="http://www.w3.org/1999/xlink" x="0px" y="0px"
	 viewBox="0 0 159.596 159.596" style="enable-background:new 0 0 159.596 159.596;" xml:space="preserve">
<g>
	<path d="M133.455,132.469c-3.352-2.43-8.044-1.682-10.474,1.673c-4.743,6.546-12.392,10.454-20.459,10.454
		c-13.916,0-25.238-11.321-25.238-25.236V65.811h47.649c4.143,0,7.5-3.358,7.5-7.5s-3.357-7.5-7.5-7.5H30.541
		c-4.142,0-7.5,3.358-7.5,7.5s3.358,7.5,7.5,7.5h31.743v53.549c0,22.187,18.051,40.236,40.238,40.236
		c12.861,0,25.05-6.226,32.606-16.653C137.558,139.588,136.809,134.899,133.455,132.469z"/>
	<path d="M69.784,36.772c4.142,0,7.5-3.358,7.5-7.5V7.5c0-4.142-3.358-7.5-7.5-7.5s-7.5,3.358-7.5,7.5v21.772
		C62.284,33.415,65.642,36.772,69.784,36.772z"/>
</g>
<g>
</g>
<g>
</g>
<g>
</g>
<g>
</g>
<g>
</g>
<g>
</g>
<g>
</g>
<g>
</g>
<g>
</g>
<g>
</g>
<g>
</g>
<g>
</g>
<g>
</g>
<g>
</g>
<g>
</g>
</svg>
