<?xml version="1.0" encoding="iso-8859-1"?>
<!-- Generator: Adobe Illustrator 18.0.0, SVG Export Plug-In . SVG Version: 6.00 Build 0)  -->
<!DOCTYPE svg PUBLIC "-//W3C//DTD SVG 1.1//EN" "http://www.w3.org/Graphics/SVG/1.1/DTD/svg11.dtd">
<svg version="1.1" id="Capa_1" xmlns="http://www.w3.org/2000/svg" xmlns:xlink="http://www.w3.org/1999/xlink" x="0px" y="0px"
	 viewBox="0 0 198.737 198.737" style="enable-background:new 0 0 198.737 198.737;" xml:space="preserve">
<g>
	<path d="M197.399,42.479c-2.36-3.401-7.034-4.247-10.438-1.886l-23.288,16.159c-2.115,1.467-3.329,3.916-3.218,6.487
		c0.067,1.542,0.1,2.988,0.1,4.42c0,47.603-36.222,96.84-96.839,96.84c-12.357,0-24.497-2.352-35.843-6.889l35.939-10.052
		c3.989-1.116,6.318-5.254,5.202-9.243c-1.116-3.988-5.25-6.318-9.243-5.202L5.48,148.299c-2.846,0.796-4.959,3.189-5.397,6.112
		c-0.437,2.922,0.882,5.83,3.37,7.425C21.477,173.391,42.316,179.5,63.716,179.5c42.057,0,68.398-19.87,83.091-36.538
		c18.27-20.728,28.748-48.174,28.748-75.302c0-0.297-0.001-0.594-0.003-0.892l19.961-13.85
		C198.915,50.556,199.76,45.883,197.399,42.479z"/>
	<path d="M16.555,40.14l75.585,38.315c1.072,0.544,2.234,0.811,3.39,0.811c1.646,0,3.282-0.541,4.629-1.598
		c2.293-1.798,3.337-4.761,2.677-7.6c-0.501-2.154-0.754-4.396-0.754-6.662c0-16.083,13.087-29.168,29.173-29.168
		c8.041,0,15.804,3.357,21.296,9.211c2.052,2.188,5.211,2.941,8.031,1.917l23.328-8.476c3.893-1.415,5.903-5.717,4.488-9.61
		c-1.414-3.894-5.72-5.901-9.61-4.488l-18.983,6.897c-7.929-6.692-18.083-10.452-28.55-10.452c-22.93,0-41.835,17.561-43.972,39.938
		L23.337,26.761c-3.695-1.874-8.208-0.396-10.081,3.298C11.383,33.754,12.86,38.267,16.555,40.14z"/>
	<path d="M12.689,85.053l16.608,4.585c0.668,0.185,1.339,0.272,2,0.272c3.289,0,6.307-2.181,7.225-5.506
		c1.103-3.992-1.241-8.123-5.233-9.226l-16.608-4.585c-3.99-1.102-8.123,1.24-9.226,5.233C6.353,79.82,8.696,83.95,12.689,85.053z"
		/>
	<path d="M27.25,107.376c-4.139,0.157-7.367,3.639-7.21,7.778c0.153,4.043,3.478,7.216,7.49,7.216c0.096,0,0.192-0.002,0.288-0.005
		l16.562-0.628c4.139-0.157,7.367-3.639,7.211-7.779c-0.157-4.139-3.648-7.363-7.778-7.21L27.25,107.376z"/>
</g>
<g>
</g>
<g>
</g>
<g>
</g>
<g>
</g>
<g>
</g>
<g>
</g>
<g>
</g>
<g>
</g>
<g>
</g>
<g>
</g>
<g>
</g>
<g>
</g>
<g>
</g>
<g>
</g>
<g>
</g>
</svg>
