<?xml version="1.0" encoding="iso-8859-1"?>
<!-- Generator: Adobe Illustrator 18.0.0, SVG Export Plug-In . SVG Version: 6.00 Build 0)  -->
<!DOCTYPE svg PUBLIC "-//W3C//DTD SVG 1.1//EN" "http://www.w3.org/Graphics/SVG/1.1/DTD/svg11.dtd">
<svg version="1.1" id="Capa_1" xmlns="http://www.w3.org/2000/svg" xmlns:xlink="http://www.w3.org/1999/xlink" x="0px" y="0px"
	 viewBox="0 0 163.563 163.563" style="enable-background:new 0 0 163.563 163.563;" xml:space="preserve">
<path d="M155.437,0h-49.104c-4.142,0-7.5,3.357-7.5,7.5c0,4.142,3.358,7.5,7.5,7.5h41.604v109.841
	c0,13.081-10.643,23.723-23.724,23.723H39.348c-13.08,0-23.722-10.642-23.722-23.723V15h41.603c4.142,0,7.5-3.358,7.5-7.5
	c0-4.143-3.358-7.5-7.5-7.5H8.126c-4.142,0-7.5,3.357-7.5,7.5v117.341c0,21.352,17.371,38.723,38.722,38.723h84.865
	c21.352,0,38.724-17.371,38.724-38.723V7.5C162.937,3.357,159.579,0,155.437,0z"/>
<g>
</g>
<g>
</g>
<g>
</g>
<g>
</g>
<g>
</g>
<g>
</g>
<g>
</g>
<g>
</g>
<g>
</g>
<g>
</g>
<g>
</g>
<g>
</g>
<g>
</g>
<g>
</g>
<g>
</g>
</svg>
