<?xml version="1.0" encoding="iso-8859-1"?>
<!-- Generator: Adobe Illustrator 18.0.0, SVG Export Plug-In . SVG Version: 6.00 Build 0)  -->
<!DOCTYPE svg PUBLIC "-//W3C//DTD SVG 1.1//EN" "http://www.w3.org/Graphics/SVG/1.1/DTD/svg11.dtd">
<svg version="1.1" id="Capa_1" xmlns="http://www.w3.org/2000/svg" xmlns:xlink="http://www.w3.org/1999/xlink" x="0px" y="0px"
	 viewBox="0 0 226.978 226.978" style="enable-background:new 0 0 226.978 226.978;" xml:space="preserve">
<g>
	<path d="M199.569,25.393C181.627,7.803,152.62-0.72,113.339,0.048C73.731,0.827,47.255,7.779,30.018,21.927
		C13.352,35.605,5.59,55.62,5.59,84.915v29.898c0,34.584,18.532,72.605,53.951,78.358c4.089,0.669,7.941-2.111,8.605-6.201
		c0.664-4.088-2.112-7.941-6.201-8.605c-26.861-4.363-41.355-36-41.355-63.552V84.915c0-42.006,15.565-68.347,93.043-69.871
		c35.125-0.696,60.477,6.395,75.433,21.059c11.655,11.429,17.321,27.395,17.321,48.812v29.898c0,45.274-20.321,65.243-72.441,71.123
		H96.988c-1.989,0-3.897,0.79-5.303,2.197l-26.041,26.041c-2.929,2.929-2.929,7.678,0,10.607c1.464,1.464,3.384,2.197,5.303,2.197
		c1.919,0,3.839-0.732,5.303-2.197l23.845-23.845h34.27c0.276,0,0.553-0.015,0.828-0.046c29.828-3.313,50.254-11.076,64.279-24.432
		c14.747-14.044,21.916-34.208,21.916-61.646V84.915C221.388,59.616,214.047,39.59,199.569,25.393z"/>
	<path d="M118.17,48.988c0.001,0,0.001,0,0.003,0c12.085,0,23.447,4.707,31.993,13.253c8.547,8.547,13.254,19.911,13.253,31.998
		c0,4.142,3.357,7.5,7.499,7.5c0.001,0,0.001,0,0.001,0c4.142,0,7.5-3.357,7.5-7.499c0.001-16.094-6.266-31.225-17.646-42.605
		c-11.379-11.38-26.507-17.646-42.6-17.646c-0.001,0-0.004,0-0.005,0c-4.142,0-7.499,3.358-7.499,7.5
		C110.67,45.63,114.028,48.988,118.17,48.988z"/>
	<path d="M118.168,75.362c10.408,0.002,18.877,8.47,18.878,18.877c0.001,4.142,3.358,7.5,7.501,7.499c4.143,0,7.5-3.359,7.499-7.501
		c-0.003-18.676-15.199-33.872-33.876-33.875h-0.001c-4.142,0-7.499,3.357-7.5,7.499C110.669,72.003,114.026,75.362,118.168,75.362z
		"/>
	<path d="M84.538,88.213c-3.419,2.338-4.296,7.005-1.959,10.424c2.337,3.419,7.005,4.295,10.424,1.958
		c2.689-1.838,8.987-6.144,8.545-14.752c-0.28-5.152-4.927-12.508-8.776-17.772C87.142,60.369,82.29,55.73,78.381,54.292
		c-3.65-1.359-7.467-1.388-11.353-0.084c-8.049,2.712-13.893,7.613-16.899,14.173c-2.927,6.386-2.862,13.725,0.189,21.228
		c7.206,17.678,17.294,33.155,30.051,46.067c12.845,12.689,28.321,22.777,46.006,29.987c3.827,1.557,7.613,2.336,11.252,2.336
		c3.49,0,6.845-0.716,9.971-2.149c6.56-3.007,11.46-8.85,14.175-16.909c1.3-3.877,1.271-7.692-0.077-11.317
		c-1.448-3.937-6.088-8.788-13.789-14.418c-5.265-3.849-12.621-8.496-17.793-8.777c-8.59-0.432-12.892,5.855-14.73,8.544
		c-2.338,3.419-1.463,8.086,1.956,10.425c3.42,2.339,8.086,1.463,10.425-1.956c0.816-1.193,1.282-1.735,1.549-1.972
		c4.21,1.349,16.215,10.169,18.376,13.549c0.053,0.216,0.065,0.545-0.135,1.144c-0.946,2.809-2.791,6.486-6.206,8.052
		c-3.199,1.464-6.834,0.566-9.316-0.443c-15.847-6.461-29.682-15.466-41.058-26.703c-11.301-11.439-20.306-25.274-26.763-41.115
		c-1.012-2.488-1.911-6.125-0.446-9.321c1.565-3.415,5.243-5.261,8.043-6.205c0.598-0.2,0.927-0.189,1.155-0.134
		c3.381,2.165,12.196,14.163,13.546,18.374C86.272,86.931,85.731,87.398,84.538,88.213z"/>
</g>
<g>
</g>
<g>
</g>
<g>
</g>
<g>
</g>
<g>
</g>
<g>
</g>
<g>
</g>
<g>
</g>
<g>
</g>
<g>
</g>
<g>
</g>
<g>
</g>
<g>
</g>
<g>
</g>
<g>
</g>
</svg>
