<?xml version="1.0" encoding="iso-8859-1"?>
<!-- Generator: Adobe Illustrator 18.0.0, SVG Export Plug-In . SVG Version: 6.00 Build 0)  -->
<!DOCTYPE svg PUBLIC "-//W3C//DTD SVG 1.1//EN" "http://www.w3.org/Graphics/SVG/1.1/DTD/svg11.dtd">
<svg version="1.1" id="Capa_1" xmlns="http://www.w3.org/2000/svg" xmlns:xlink="http://www.w3.org/1999/xlink" x="0px" y="0px"
	 viewBox="0 0 152.415 152.415" style="enable-background:new 0 0 152.415 152.415;" xml:space="preserve">
<path d="M150.701,26.752c-9.585-11.621-19.897-14.1-26.943-14.1c-0.082,0-0.164,0.001-0.246,0.001
	c-9.784,0.081-19.544,5.042-26.109,13.273c-2.583,3.238-2.052,7.957,1.187,10.54c3.238,2.581,7.958,2.051,10.54-1.187
	c3.774-4.731,9.197-7.583,14.506-7.626c4.047-0.034,7.976,1.542,11.66,4.694l-56.717,83.606l-34.29-93.378
	c-1.426-3.886-5.729-5.88-9.618-4.458L4.924,29.003c-3.89,1.423-5.889,5.731-4.465,9.62c1.423,3.891,5.732,5.891,9.621,4.466
	l22.708-8.31l36.747,100.068c0.97,2.641,3.336,4.517,6.128,4.859c0.306,0.037,0.611,0.056,0.914,0.056
	c2.465,0,4.799-1.217,6.205-3.289l68.339-100.738C152.991,32.98,152.82,29.321,150.701,26.752z"/>
<g>
</g>
<g>
</g>
<g>
</g>
<g>
</g>
<g>
</g>
<g>
</g>
<g>
</g>
<g>
</g>
<g>
</g>
<g>
</g>
<g>
</g>
<g>
</g>
<g>
</g>
<g>
</g>
<g>
</g>
</svg>
