<?xml version="1.0" encoding="iso-8859-1"?>
<!-- Generator: Adobe Illustrator 18.0.0, SVG Export Plug-In . SVG Version: 6.00 Build 0)  -->
<!DOCTYPE svg PUBLIC "-//W3C//DTD SVG 1.1//EN" "http://www.w3.org/Graphics/SVG/1.1/DTD/svg11.dtd">
<svg version="1.1" id="Capa_1" xmlns="http://www.w3.org/2000/svg" xmlns:xlink="http://www.w3.org/1999/xlink" x="0px" y="0px"
	 viewBox="0 0 134.036 134.036" style="enable-background:new 0 0 134.036 134.036;" xml:space="preserve">
<path d="M113.476,56.084c4.024,0.976,8.079-1.502,9.052-5.527c0.96-3.971,1.446-8.135,1.446-12.377
	C123.974,16.771,111.839,0,96.348,0S68.722,16.771,68.722,38.18c0,12.104,4.146,23.419,11.374,31.044
	c2.102,2.217,4.225,4.109,6.342,5.721l-21.349,35.238L24.455,15.584c-1.635-3.807-6.046-5.565-9.851-3.932
	c-3.806,1.635-5.566,6.046-3.931,9.852L57.06,129.496c1.109,2.582,3.567,4.327,6.37,4.521c0.175,0.013,0.349,0.019,0.522,0.019
	c2.609,0,5.048-1.36,6.413-3.614l29.408-48.541c4.269,1.315,8.233,1.764,11.596,1.764c6.185,0,10.357-1.465,10.746-1.606
	l-2.573-7.045l-2.485-7.076c-0.542,0.182-13.441,4.313-26.075-9.014c-4.545-4.795-7.259-12.542-7.259-20.724
	c0-13.267,6.666-23.18,12.626-23.18c5.96,0,12.626,9.913,12.626,23.18c0,3.057-0.345,6.035-1.026,8.852
	C106.975,51.058,109.449,55.11,113.476,56.084z"/>
<g>
</g>
<g>
</g>
<g>
</g>
<g>
</g>
<g>
</g>
<g>
</g>
<g>
</g>
<g>
</g>
<g>
</g>
<g>
</g>
<g>
</g>
<g>
</g>
<g>
</g>
<g>
</g>
<g>
</g>
</svg>
