<?xml version="1.0" encoding="iso-8859-1"?>
<!-- Generator: Adobe Illustrator 18.0.0, SVG Export Plug-In . SVG Version: 6.00 Build 0)  -->
<!DOCTYPE svg PUBLIC "-//W3C//DTD SVG 1.1//EN" "http://www.w3.org/Graphics/SVG/1.1/DTD/svg11.dtd">
<svg version="1.1" id="Capa_1" xmlns="http://www.w3.org/2000/svg" xmlns:xlink="http://www.w3.org/1999/xlink" x="0px" y="0px"
	 viewBox="0 0 184.313 184.313" style="enable-background:new 0 0 184.313 184.313;" xml:space="preserve">
<path d="M180.323,147.777l-53.048-45.373l55.314-66.784c2.642-3.191,2.197-7.918-0.992-10.56c-3.19-2.643-7.918-2.199-10.561,0.992
	l-60.022,72.469c-0.304,0.366-0.562,0.754-0.784,1.156V30.836c0-4.142-3.357-7.5-7.5-7.5h-9.521c-4.143,0-7.5,3.358-7.5,7.5
	s3.357,7.5,7.5,7.5h2.021v93.253L13.424,26.236c-2.541-3.272-7.253-3.864-10.524-1.324c-3.272,2.54-3.864,7.252-1.324,10.523
	l95.229,122.641c1.448,1.866,3.652,2.901,5.925,2.901c0.812,0,1.633-0.132,2.431-0.405c3.031-1.039,5.068-3.89,5.068-7.095v-46.55
	c0.423,0.767,0.981,1.476,1.686,2.079l58.658,50.171c1.413,1.209,3.146,1.8,4.871,1.8c2.116,0,4.22-0.891,5.703-2.625
	C183.84,155.204,183.471,150.469,180.323,147.777z"/>
<g>
</g>
<g>
</g>
<g>
</g>
<g>
</g>
<g>
</g>
<g>
</g>
<g>
</g>
<g>
</g>
<g>
</g>
<g>
</g>
<g>
</g>
<g>
</g>
<g>
</g>
<g>
</g>
<g>
</g>
</svg>
