<?xml version="1.0" encoding="iso-8859-1"?>
<!-- Generator: Adobe Illustrator 18.0.0, SVG Export Plug-In . SVG Version: 6.00 Build 0)  -->
<!DOCTYPE svg PUBLIC "-//W3C//DTD SVG 1.1//EN" "http://www.w3.org/Graphics/SVG/1.1/DTD/svg11.dtd">
<svg version="1.1" id="Capa_1" xmlns="http://www.w3.org/2000/svg" xmlns:xlink="http://www.w3.org/1999/xlink" x="0px" y="0px"
	 viewBox="0 0 173.49 173.49" style="enable-background:new 0 0 173.49 173.49;" xml:space="preserve">
<path d="M169.534,1.799c-1.667-1.425-3.874-2.049-6.042-1.707L7.661,24.677c-3.646,0.575-6.331,3.717-6.331,7.408v109.319
	c0,3.69,2.685,6.833,6.331,7.408l155.832,24.586c0.39,0.062,0.78,0.092,1.169,0.092c1.773,0,3.505-0.63,4.873-1.799
	c1.667-1.425,2.627-3.508,2.627-5.701V7.5C172.161,5.306,171.201,3.223,169.534,1.799z M157.161,79.305H84.126V27.799l73.035-11.522
	V79.305z M69.126,30.165v49.141H16.329V38.495L69.126,30.165z M16.329,94.305h52.797v49.02l-52.797-8.33V94.305z M84.126,145.691
	V94.305h73.035v62.908L84.126,145.691z"/>
<g>
</g>
<g>
</g>
<g>
</g>
<g>
</g>
<g>
</g>
<g>
</g>
<g>
</g>
<g>
</g>
<g>
</g>
<g>
</g>
<g>
</g>
<g>
</g>
<g>
</g>
<g>
</g>
<g>
</g>
</svg>
