<?xml version="1.0" encoding="iso-8859-1"?>
<!-- Generator: Adobe Illustrator 18.0.0, SVG Export Plug-In . SVG Version: 6.00 Build 0)  -->
<!DOCTYPE svg PUBLIC "-//W3C//DTD SVG 1.1//EN" "http://www.w3.org/Graphics/SVG/1.1/DTD/svg11.dtd">
<svg version="1.1" id="Capa_1" xmlns="http://www.w3.org/2000/svg" xmlns:xlink="http://www.w3.org/1999/xlink" x="0px" y="0px"
	 viewBox="0 0 186.844 186.844" style="enable-background:new 0 0 186.844 186.844;" xml:space="preserve">
<g>
	<path d="M93.421,0C41.909,0,0,41.909,0,93.422c0,51.513,41.909,93.421,93.421,93.421c51.514,0,93.423-41.909,93.423-93.421
		C186.844,41.909,144.935,0,93.421,0z M93.421,171.844C50.18,171.844,15,136.664,15,93.422C15,50.18,50.18,15,93.421,15
		c43.243,0,78.423,35.18,78.423,78.422C171.844,136.664,136.664,171.844,93.421,171.844z"/>
	<path d="M156.453,67.825l-10.89-16.508c-2.281-3.458-6.933-4.411-10.391-2.131c-3.458,2.281-4.412,6.933-2.131,10.391l8.777,13.305
		l-19.468,51.302L95.637,60.323c-1.598-3.821-5.994-5.622-9.813-4.024c-3.822,1.598-5.624,5.992-4.025,9.813l8.388,20.051
		l-14.428,38.021L49.044,60.323c-1.599-3.821-5.991-5.622-9.813-4.024c-3.821,1.599-5.623,5.992-4.024,9.813l33.973,81.212
		c1.169,2.793,3.899,4.605,6.918,4.605c0.042,0,0.085-0.001,0.127-0.001c3.069-0.051,5.797-1.968,6.887-4.838l15.489-40.816
		l17.171,41.05c1.168,2.793,3.899,4.605,6.918,4.605c0.042,0,0.084-0.001,0.126-0.001c3.069-0.051,5.797-1.968,6.887-4.838
		l27.503-72.475C158.06,72.363,157.78,69.836,156.453,67.825z"/>
</g>
<g>
</g>
<g>
</g>
<g>
</g>
<g>
</g>
<g>
</g>
<g>
</g>
<g>
</g>
<g>
</g>
<g>
</g>
<g>
</g>
<g>
</g>
<g>
</g>
<g>
</g>
<g>
</g>
<g>
</g>
</svg>
