<?xml version="1.0" encoding="iso-8859-1"?>
<!-- Generator: Adobe Illustrator 18.0.0, SVG Export Plug-In . SVG Version: 6.00 Build 0)  -->
<!DOCTYPE svg PUBLIC "-//W3C//DTD SVG 1.1//EN" "http://www.w3.org/Graphics/SVG/1.1/DTD/svg11.dtd">
<svg version="1.1" id="Capa_1" xmlns="http://www.w3.org/2000/svg" xmlns:xlink="http://www.w3.org/1999/xlink" x="0px" y="0px"
	 viewBox="0 0 221.743 221.743" style="enable-background:new 0 0 221.743 221.743;" xml:space="preserve">
<g>
	<path d="M159.383,162.401h-41.298v-30.979l56.648-55.946h37.781c4.143,0,7.5-3.357,7.5-7.5s-3.357-7.5-7.5-7.5h-40.812
		c-0.002,0-0.004,0-0.004,0h-40.901c-4.143,0-7.5,3.357-7.5,7.5s3.357,7.5,7.5,7.5h22.589l-41.668,41.151L70.332,55.842h34.475
		c4.143,0,7.5-3.357,7.5-7.5s-3.357-7.5-7.5-7.5H56.138c-0.012,0-0.022,0-0.033,0H7.5c-4.143,0-7.5,3.357-7.5,7.5s3.357,7.5,7.5,7.5
		h44.687l50.898,74.756v31.803H62.362c-4.143,0-7.5,3.357-7.5,7.5c0,4.143,3.357,7.5,7.5,7.5h97.02c4.143,0,7.5-3.357,7.5-7.5
		C166.883,165.758,163.525,162.401,159.383,162.401z"/>
	<path d="M215.303,84.227c-4.088-0.572-7.899,2.263-8.485,6.364l-7.416,51.919c-0.586,4.101,2.264,7.899,6.364,8.485
		c0.359,0.051,0.717,0.076,1.07,0.076c3.672,0,6.881-2.699,7.415-6.44l7.416-51.919C222.253,88.612,219.403,84.813,215.303,84.227z"
		/>
	<path d="M202.121,158.901c-2.891,0-5.73,1.171-7.77,3.221c-2.05,2.05-3.23,4.88-3.23,7.779c0,2.9,1.18,5.73,3.23,7.78
		c2.04,2.04,4.88,3.22,7.77,3.22c2.899,0,5.73-1.18,7.78-3.22c2.05-2.05,3.22-4.88,3.22-7.78c0-2.899-1.17-5.729-3.22-7.779
		C207.851,160.072,205.02,158.901,202.121,158.901z"/>
</g>
<g>
</g>
<g>
</g>
<g>
</g>
<g>
</g>
<g>
</g>
<g>
</g>
<g>
</g>
<g>
</g>
<g>
</g>
<g>
</g>
<g>
</g>
<g>
</g>
<g>
</g>
<g>
</g>
<g>
</g>
</svg>
